#N canvas 83 143 1410 541 12;
#X msg 405 344 close;
#X msg 249 343 ports;
#X msg 304 345 devices usb;
#X msg 181 342 open 32;
#X obj 91 7 vsl 20 170 0 127 0 0 empty empty empty 0 -9 0 12 #fcfcfc #000000 #000000 0 1;
#X text 260 111 ENTTEC DMX Protocol;
#X obj 124 423 comport 32 57600;
#X obj 91 338 print;
#X obj 91 185 i;
#X msg 88 313 126 6 2 0 0 \$1 231;
#X connect 0 0 6 0;
#X connect 1 0 6 0;
#X connect 2 0 6 0;
#X connect 3 0 6 0;
#X connect 4 0 8 0;
#X connect 8 0 9 0;
#X connect 9 0 6 0;
#X connect 9 0 7 0;
