#N canvas 104 40 3708 1970 12;
#X obj 101 168 ctlin;
#X obj 101 198 pack f f;
#X msg 101 228 \$2 \$1;
#X obj 101 258 s midi;
#X obj 580 260 realtime;
#X obj 499 168 bng 40 250 50 0 empty empty START 0 -10 0 12 #ffffff #00ff04 #000000;
#X obj 399 144 r rt;
#X obj 399 174 / 1000;
#X obj 399 204 mod 60;
#X obj 399 234 i;
#X floatatom 399 264 5 0 0 3 sec - - 36;
#X obj 276 198 mod 60;
#X obj 276 228 i;
#X floatatom 276 258 5 0 0 3 min - - 36;
#X obj 276 168 / 60;
#X obj 580 290 s rt;
#X obj 611 232 metro 1;
#X obj 600 153 tgl 40 0 empty empty RUN 0 -10 0 12 #fcfcfc #000000 #000000 0 1;
#X obj 522 232 s start;
#X msg 215 658 rewind;
#X obj 196 489 bng 30 250 50 0 empty empty LOAD\ RECORDING 0 -10 0 12 #fcfcfc #0400ff #000000;
#X floatatom 186 898 7 0 0 0 - - - 0;
#X obj 129 898 r rt;
#X obj 175 953 >=;
#X floatatom 129 928 12 0 0 0 - - - 0;
#X obj 175 983 select 1;
#X obj 215 598 r start;
#X obj 1329 308 netsend;
#X text 1390 307 $ pdreceive 3000 > data.log;
#X msg 1581 168 disconnect;
#X msg 1396 168 connect localhost 3000;
#X obj 797 185 vsl 20 170 0 127 0 0 empty empty empty 0 -9 0 12 #fcfcfc #000000 #000000 0 1;
#X text 912 122 RECORD;
#X obj 797 123 r midi;
#X obj 797 153 route 0 1 2 3 4 5 6 7, f 62;
#X obj 851 185 vsl 20 170 0 127 0 0 empty empty empty 0 -9 0 12 #fcfcfc #000000 #000000 0 1;
#X obj 905 185 vsl 20 170 0 127 0 0 empty empty empty 0 -9 0 12 #fcfcfc #000000 #000000 0 1;
#X obj 959 185 vsl 20 170 0 127 0 0 empty empty empty 0 -9 0 12 #fcfcfc #000000 #000000 0 1;
#X obj 1013 185 vsl 20 170 0 127 0 0 empty empty empty 0 -9 0 12 #fcfcfc #000000 #000000 0 1;
#X obj 1067 185 vsl 20 170 0 127 0 0 empty empty empty 0 -9 0 12 #fcfcfc #000000 #000000 0 1;
#X obj 1121 185 vsl 20 170 0 127 0 0 empty empty empty 0 -9 0 12 #fcfcfc #000000 #000000 0 1;
#X obj 1176 185 vsl 20 170 0 127 0 0 empty empty empty 0 -9 0 12 #fcfcfc #000000 #000000 0 1;
#X obj 196 769 unpack f f f f, f 19;
#X msg 196 570 read dimmer.log;
#X obj 239 835 pack f f f, f 13;
#X obj 196 799 t b f;
#X obj 249 730 s dimmer_eof;
#X obj 277 660 r dimmer_nextline;
#X obj 175 1013 s dimmer_nextline;
#X obj 239 865 s dimmer_ctl;
#X obj 239 895 r dimmer_eof;
#X obj 239 925 bng 20 250 50 0 empty empty empty 0 -10 0 12 #fcfcfc #000000 #000000;
#X obj 347 898 r start;
#X obj 347 928 bng 20 250 50 0 empty empty empty 0 -10 0 12 #fcfcfc #000000 #000000;
#X obj 239 955 r dimmer_nextline;
#X obj 239 985 bng 20 250 50 0 empty empty empty 0 -10 0 12 #fcfcfc #000000 #000000;
#X msg 648 658 rewind;
#X obj 629 489 bng 30 250 50 0 empty empty LOAD\ RECORDING 0 -10 0 12 #fcfcfc #0400ff #000000;
#X floatatom 619 898 7 0 0 0 - - - 0;
#X obj 562 898 r rt;
#X obj 608 953 >=;
#X floatatom 562 928 12 0 0 0 - - - 0;
#X obj 608 983 select 1;
#X obj 648 598 r start;
#X obj 629 769 unpack f f f f, f 19;
#X obj 672 835 pack f f f, f 13;
#X obj 629 799 t b f;
#X obj 672 925 bng 20 250 50 0 empty empty empty 0 -10 0 12 #fcfcfc #000000 #000000;
#X obj 793 898 r start;
#X obj 793 928 bng 20 250 50 0 empty empty empty 0 -10 0 12 #fcfcfc #000000 #000000;
#X obj 672 985 bng 20 250 50 0 empty empty empty 0 -10 0 12 #fcfcfc #000000 #000000;
#X obj 95 1165 vsl 20 170 0 127 0 0 empty empty empty 0 -9 0 12 #fcfcfc #000000 #000000 0 1;
#X obj 92 1073 route 0 1 2 3 4 5 6 7, f 62;
#X obj 148 1165 vsl 20 170 0 127 0 0 empty empty empty 0 -9 0 12 #fcfcfc #000000 #000000 0 1;
#X obj 203 1165 vsl 20 170 0 127 0 0 empty empty empty 0 -9 0 12 #fcfcfc #000000 #000000 0 1;
#X obj 257 1165 vsl 20 170 0 127 0 0 empty empty empty 0 -9 0 12 #fcfcfc #000000 #000000 0 1;
#X obj 311 1165 vsl 20 170 0 127 0 0 empty empty empty 0 -9 0 12 #fcfcfc #000000 #000000 0 1;
#X obj 364 1165 vsl 20 170 0 127 0 0 empty empty empty 0 -9 0 12 #fcfcfc #000000 #000000 0 1;
#X obj 418 1165 vsl 20 170 0 127 0 0 empty empty empty 0 -9 0 12 #fcfcfc #000000 #000000 0 1;
#X obj 472 1165 vsl 20 170 0 127 0 0 empty empty empty 0 -9 0 12 #fcfcfc #000000 #000000 0 1;
#X obj 92 1043 r dimmer_ctl;
#X text 207 1042 DIMMER;
#X obj 579 1165 vsl 20 170 0 127 0 0 empty empty empty 0 -9 0 12 #fcfcfc #000000 #000000 0 1;
#X obj 579 1073 route 0 1 2 3 4 5 6 7, f 62;
#X obj 633 1165 vsl 20 170 0 127 0 0 empty empty empty 0 -9 0 12 #fcfcfc #000000 #000000 0 1;
#X obj 687 1165 vsl 20 170 0 127 0 0 empty empty empty 0 -9 0 12 #fcfcfc #000000 #000000 0 1;
#X obj 741 1165 vsl 20 170 0 127 0 0 empty empty empty 0 -9 0 12 #fcfcfc #000000 #000000 0 1;
#X obj 795 1165 vsl 20 170 0 127 0 0 empty empty empty 0 -9 0 12 #fcfcfc #000000 #000000 0 1;
#X obj 849 1165 vsl 20 170 0 127 0 0 empty empty empty 0 -9 0 12 #fcfcfc #000000 #000000 0 1;
#X obj 903 1165 vsl 20 170 0 127 0 0 empty empty empty 0 -9 0 12 #fcfcfc #000000 #000000 0 1;
#X obj 958 1165 vsl 20 170 0 127 0 0 empty empty empty 0 -9 0 12 #fcfcfc #000000 #000000 0 1;
#X obj 1109 696 textfile;
#X msg 1128 660 rewind;
#X obj 1109 489 bng 30 250 50 0 empty empty LOAD\ RECORDING 0 -10 0 12 #fcfcfc #0400ff #000000;
#X floatatom 1099 898 8 0 0 0 - - - 0;
#X obj 1042 898 r rt;
#X obj 1088 953 >=;
#X floatatom 1042 928 12 0 0 0 - - - 0;
#X obj 1088 983 select 1;
#X obj 1109 600 r start;
#X obj 1109 769 unpack f f f f, f 19;
#X obj 1152 835 pack f f f, f 13;
#X obj 1109 799 t b f;
#X obj 1175 928 bng 20 250 50 0 empty empty empty 0 -10 0 12 #fcfcfc #000000 #000000;
#X obj 1282 898 r start;
#X obj 1282 928 bng 20 250 50 0 empty empty empty 0 -10 0 12 #fcfcfc #000000 #000000;
#X obj 1175 988 bng 20 250 50 0 empty empty empty 0 -10 0 12 #fcfcfc #000000 #000000;
#X obj 1059 1165 vsl 20 170 0 127 0 0 empty empty empty 0 -9 0 12 #fcfcfc #000000 #000000 0 1;
#X obj 1113 1165 vsl 20 170 0 127 0 0 empty empty empty 0 -9 0 12 #fcfcfc #000000 #000000 0 1;
#X obj 1167 1165 vsl 20 170 0 127 0 0 empty empty empty 0 -9 0 12 #fcfcfc #000000 #000000 0 1;
#X obj 1221 1165 vsl 20 170 0 127 0 0 empty empty empty 0 -9 0 12 #fcfcfc #000000 #000000 0 1;
#X obj 608 1013 s ceiling1_nextline;
#X obj 579 1043 r ceiling1_ctl;
#X obj 672 865 s ceiling1_ctl;
#X obj 672 955 r ceiling1_nextline;
#X obj 672 895 r ceiling1_eof;
#X obj 710 660 r ceiling1_nextline;
#X obj 682 730 s ceiling1_eof;
#X msg 629 570 read ceiling1.log;
#X msg 1109 570 read ceiling2.log;
#X obj 1190 660 r ceiling2_nextline;
#X obj 1162 730 s ceiling2_eof;
#X obj 1175 898 r ceiling2_eof;
#X obj 1175 958 r ceiling2_nextline;
#X obj 1152 865 s ceiling2_ctl;
#X obj 1088 1013 s ceiling2_nextline;
#X obj 1059 1043 r ceiling2_ctl;
#X text 1174 1042 COMTROL ROOM;
#X obj 1059 1073 route 0 1 2 3, f 31;
#X obj 1414 696 textfile;
#X msg 1433 658 rewind;
#X obj 1414 502 bng 30 250 50 0 empty empty LOAD\ RECORDING 0 -10 0 12 #fcfcfc #0400ff #000000;
#X floatatom 1404 898 7 0 0 0 - - - 0;
#X obj 1347 898 r rt;
#X obj 1393 953 >=;
#X floatatom 1347 928 12 0 0 0 - - - 0;
#X obj 1393 983 select 1;
#X obj 1433 598 r start;
#X obj 1414 769 unpack f f f f, f 19;
#X obj 1457 835 pack f f f, f 13;
#X obj 1414 799 t b f;
#X obj 1457 925 bng 20 250 50 0 empty empty empty 0 -10 0 12 #fcfcfc #000000 #000000;
#X obj 1554 898 r start;
#X obj 1554 928 bng 20 250 50 0 empty empty empty 0 -10 0 12 #fcfcfc #000000 #000000;
#X obj 1457 985 bng 20 250 50 0 empty empty empty 0 -10 0 12 #fcfcfc #000000 #000000;
#X obj 1337 1165 vsl 20 170 0 127 0 0 empty empty empty 0 -9 0 12 #ffe3c6 #000000 #000000 0 1;
#X obj 1391 1165 vsl 20 170 0 127 0 0 empty empty empty 0 -9 0 12 #fcfcfc #000000 #000000 0 1;
#X obj 1444 1165 vsl 20 170 0 127 0 0 empty empty empty 0 -9 0 12 #fcfcfc #000000 #000000 0 1;
#X obj 1499 1165 vsl 20 170 0 127 0 0 empty empty empty 0 -9 0 12 #fcfcfc #000000 #000000 0 1;
#X obj 1457 865 s pumps_ctl;
#X obj 1457 955 r pumps_nextline;
#X obj 1393 1013 s pumps_nextline;
#X obj 1337 1043 r pumps_ctl;
#X obj 1467 730 s pumps_eof;
#X obj 1457 895 r pumps_eof;
#X obj 647 260 realtime;
#X obj 1329 168 r rtmidi;
#X msg 1414 570 read pumps.log;
#X obj 1495 660 r pumps_nextline;
#X obj 1706 696 textfile;
#X msg 1725 658 rewind;
#X obj 1706 489 bng 30 250 50 0 empty empty LOAD\ RECORDING 0 -10 0 12 #fcfcfc #0400ff #000000;
#X floatatom 1696 898 8 0 0 0 - - - 0;
#X obj 1639 898 r rt;
#X obj 1685 953 >=;
#X floatatom 1639 928 12 0 0 0 - - - 0;
#X obj 1685 983 select 1;
#X obj 1725 598 r start;
#X obj 1706 769 unpack f f f f, f 19;
#X obj 1749 835 pack f f f, f 13;
#X obj 1706 799 t b f;
#X obj 1749 925 bng 20 250 50 0 empty empty empty 0 -10 0 12 #fcfcfc #000000 #000000;
#X obj 1848 898 r start;
#X obj 1848 928 bng 20 250 50 0 empty empty empty 0 -10 0 12 #fcfcfc #000000 #000000;
#X obj 1749 955 bng 20 250 50 0 empty empty empty 0 -10 0 12 #fcfcfc #000000 #000000;
#X obj 1656 1165 vsl 20 170 0 127 0 0 empty empty empty 0 -9 0 12 #fcfcfc #000000 #000000 0 1;
#X obj 1655 1073 route 0 1 2 3 4 5 6 7, f 62;
#X obj 1710 1165 vsl 20 170 0 127 0 0 empty empty empty 0 -9 0 12 #fcfcfc #000000 #000000 0 1;
#X obj 1764 1165 vsl 20 170 0 127 0 0 empty empty empty 0 -9 0 12 #fcfcfc #000000 #000000 0 1;
#X obj 1818 1165 vsl 20 170 0 127 0 0 empty empty empty 0 -9 0 12 #fcfcfc #000000 #000000 0 1;
#X obj 1872 1165 vsl 20 170 0 127 0 0 empty empty empty 0 -9 0 12 #fcfcfc #000000 #000000 0 1;
#X obj 1926 1165 vsl 20 170 0 127 0 0 empty empty empty 0 -9 0 12 #fcfcfc #000000 #000000 0 1;
#X obj 1980 1165 vsl 20 170 0 127 0 0 empty empty empty 0 -9 0 12 #fcfcfc #000000 #000000 0 1;
#X obj 2035 1165 vsl 20 170 0 127 0 0 empty empty empty 0 -9 0 12 #fcfcfc #000000 #000000 0 1;
#X msg 1706 570 read bars.log;
#X obj 1787 660 r bars_nextline;
#X obj 1759 730 s bars_eof;
#X obj 1749 895 r bars_eof;
#X obj 1765 953 r bars_nextline;
#X obj 1749 865 s bars_ctl;
#X obj 1685 1013 s bars_nextline;
#X obj 1655 1043 r bars_ctl;
#X text 1452 1042 DIALYSIS;
#X text 1770 1042 LEVEL BARS;
#X obj 2172 696 textfile;
#X msg 2191 658 rewind;
#X obj 2172 502 bng 30 250 50 0 empty empty LOAD\ RECORDING 0 -10 0 12 #fcfcfc #0400ff #000000;
#X floatatom 2162 898 7 0 0 0 - - - 0;
#X obj 2105 898 r rt;
#X obj 2151 953 >=;
#X floatatom 2105 928 12 0 0 0 - - - 0;
#X obj 2151 983 select 1;
#X obj 2191 598 r start;
#X obj 2172 769 unpack f f f f, f 19;
#X obj 2215 835 pack f f f, f 13;
#X obj 2172 799 t b f;
#X obj 2215 925 bng 20 250 50 0 empty empty empty 0 -10 0 12 #fcfcfc #000000 #000000;
#X obj 2312 898 r start;
#X obj 2312 928 bng 20 250 50 0 empty empty empty 0 -10 0 12 #fcfcfc #000000 #000000;
#X obj 2215 985 bng 20 250 50 0 empty empty empty 0 -10 0 12 #fcfcfc #000000 #000000;
#X obj 2122 1165 vsl 20 170 0 127 0 0 empty empty empty 0 -9 0 12 #fcfcfc #000000 #000000 0 1;
#X obj 2176 1165 vsl 20 170 0 127 0 0 empty empty empty 0 -9 0 12 #fcfcfc #000000 #000000 0 1;
#X obj 2230 1165 vsl 20 170 0 127 0 0 empty empty empty 0 -9 0 12 #fcfcfc #000000 #000000 0 1;
#X obj 2284 1165 vsl 20 170 0 127 0 0 empty empty empty 0 -9 0 12 #fcfcfc #000000 #000000 0 1;
#X obj 2122 1073 route 0 1 2 3, f 31;
#X obj 2151 1013 s lungs_nextline;
#X obj 2122 1043 r lungs_ctl;
#X text 2237 1042 RESPIRATOR;
#X obj 2215 955 r lungs_nextline;
#X obj 2215 895 r lungs_eof;
#X obj 2215 865 s lungs_ctl;
#X obj 2225 730 s lungs_eof;
#X obj 2253 660 r lungs_nextline;
#X msg 2172 570 read lungs.log;
#X obj 2235 72 r lungs_eof;
#X obj 2137 72 r bars_eof;
#X obj 2041 72 r pumps_eof;
#X obj 1726 72 r dimmer_eof;
#X obj 1822 72 r ceiling1_eof;
#X obj 1932 72 r ceiling2_eof;
#X obj 682 168 r midi;
#X obj 682 198 unpack f f f;
#X obj 668 349 pack f f f f;
#X obj 668 379 s rtmidi;
#X obj 645 385 bng 20 250 50 0 empty empty empty 0 -10 0 12 #fcfcfc #000000 #000000;
#X obj 647 290 bng 20 250 50 0 empty empty empty 0 -10 0 12 #fcfcfc #000000 #000000;
#X obj 682 228 t b f;
#X obj 648 628 t b b;
#X obj 215 628 t b b;
#X obj 1109 630 t b b;
#X obj 1433 628 t b b;
#X obj 1725 628 t b b;
#X obj 2191 628 t b b;
#X msg 1763 153 0;
#X msg 1726 102 1;
#X obj 1727 168 tgl 20 0 empty empty empty 0 -10 0 12 #fcfcfc #000000 #000000 0 1;
#X obj 1727 228 &&;
#X obj 1763 123 r start;
#X msg 1859 153 0;
#X msg 1822 102 1;
#X obj 1823 168 tgl 20 0 empty empty empty 0 -10 0 12 #fcfcfc #000000 #000000 0 1;
#X obj 1859 123 r start;
#X obj 499 72 r all_end;
#X msg 1969 153 0;
#X msg 1932 102 1;
#X obj 1933 168 tgl 20 0 empty empty empty 0 -10 0 12 #fcfcfc #000000 #000000 0 1;
#X obj 1969 123 r start;
#X obj 1727 198 t f;
#X obj 1675 168 r rt;
#X obj 1675 198 t b f;
#X obj 1779 279 &&;
#X msg 2078 153 0;
#X msg 2041 102 1;
#X obj 2042 168 tgl 20 0 empty empty empty 0 -10 0 12 #fcfcfc #000000 #000000 0 1;
#X obj 2078 123 r start;
#X obj 1840 308 &&;
#X msg 2174 127 0;
#X msg 2137 102 1;
#X obj 2138 168 tgl 20 0 empty empty empty 0 -10 0 12 #fcfcfc #000000 #000000 0 1;
#X obj 2174 97 r start;
#X msg 2272 127 0;
#X msg 2235 102 1;
#X obj 2236 168 tgl 20 0 empty empty empty 0 -10 0 12 #fcfcfc #000000 #000000 0 1;
#X obj 2272 97 r start;
#X obj 1903 349 &&;
#X obj 1964 385 &&;
#X obj 624 53 loadbang;
#X msg 638 153 1;
#X obj 629 696 textfile;
#X obj 196 696 textfile;
#X obj 196 459 loadbang;
#X obj 629 459 loadbang;
#X obj 1109 459 loadbang;
#X obj 1414 438 loadbang;
#X obj 1706 459 loadbang;
#X obj 2172 438 loadbang;
#X obj 638 123 delay 2000;
#X obj 324 570 loadbang;
#X obj 324 600 delay 1000;
#X obj 764 570 loadbang;
#X obj 764 600 delay 1000;
#X obj 1248 570 loadbang;
#X obj 1248 600 delay 1000;
#X obj 1531 570 loadbang;
#X obj 1531 600 delay 1000;
#X obj 1822 570 loadbang;
#X obj 1822 600 delay 1000;
#X obj 2285 570 loadbang;
#X obj 2285 600 delay 1000;
#X msg 600 123 0;
#X msg 2509 658 rewind;
#X obj 2490 489 bng 30 250 50 0 empty empty LOAD\ RECORDING 0 -10 0 12 #fcfcfc #0400ff #000000;
#X floatatom 2480 898 7 0 0 0 - - - 0;
#X obj 2423 898 r rt;
#X obj 2469 953 >=;
#X floatatom 2423 928 12 0 0 0 - - - 0;
#X obj 2469 983 select 1;
#X obj 2509 598 r start;
#X obj 2490 769 unpack f f f f, f 19;
#X obj 2533 835 pack f f f, f 13;
#X obj 2490 799 t b f;
#X obj 2533 925 bng 20 250 50 0 empty empty empty 0 -10 0 12 #fcfcfc #000000 #000000;
#X obj 2654 898 r start;
#X obj 2654 928 bng 20 250 50 0 empty empty empty 0 -10 0 12 #fcfcfc #000000 #000000;
#X obj 2552 983 bng 20 250 50 0 empty empty empty 0 -10 0 12 #fcfcfc #000000 #000000;
#X obj 2440 1165 vsl 20 170 0 127 0 0 empty empty empty 0 -9 0 12 #fcfcfc #000000 #000000 0 1;
#X obj 2440 1073 route 0 1 2 3 4 5 6 7, f 62;
#X obj 2494 1165 vsl 20 170 0 127 0 0 empty empty empty 0 -9 0 12 #fcfcfc #000000 #000000 0 1;
#X obj 2548 1165 vsl 20 170 0 127 0 0 empty empty empty 0 -9 0 12 #fcfcfc #000000 #000000 0 1;
#X obj 2602 1165 vsl 20 170 0 127 0 0 empty empty empty 0 -9 0 12 #fcfcfc #000000 #000000 0 1;
#X obj 2656 1165 vsl 20 170 0 127 0 0 empty empty empty 0 -9 0 12 #fcfcfc #000000 #000000 0 1;
#X obj 2710 1165 vsl 20 170 0 127 0 0 empty empty empty 0 -9 0 12 #fcfcfc #000000 #000000 0 1;
#X obj 2764 1165 vsl 20 170 0 127 0 0 empty empty empty 0 -9 0 12 #fcfcfc #000000 #000000 0 1;
#X obj 2819 1165 vsl 20 170 0 127 0 0 empty empty empty 0 -9 0 12 #fcfcfc #000000 #000000 0 1;
#X obj 2509 628 t b b;
#X obj 2490 696 textfile;
#X obj 2490 459 loadbang;
#X obj 2625 570 loadbang;
#X obj 2625 600 delay 1000;
#X msg 2490 570 read mixer1.log;
#X obj 2571 660 r mixer1_nextline;
#X obj 2543 730 s mixer1_eof;
#X obj 2533 865 s mixer1_ctl;
#X obj 2533 895 r mixer1_eof;
#X obj 2469 1013 s mixer1_nextline;
#X obj 2552 953 r mixer1_nextline;
#X msg 2378 127 0;
#X msg 2341 102 1;
#X obj 2342 168 tgl 20 0 empty empty empty 0 -10 0 12 #fcfcfc #000000 #000000 0 1;
#X obj 2378 97 r start;
#X obj 2341 72 r mixer1_eof;
#X obj 2027 439 tgl 20 0 empty empty empty 0 -10 0 12 #fcfcfc #000000 #000000 0 1;
#X obj 2027 469 change;
#X obj 2027 499 bng 20 250 50 0 empty empty empty 0 -10 0 12 #fcfcfc #000000 #000000;
#X obj 2027 529 s all_end;
#X obj 2027 409 &&;
#X obj 2440 1043 r mixer1_ctl;
#X text 2555 1042 MIXER 1-8;
#N canvas 2642 925 732 1049 hbeat 0;
#X obj 254 243 bng 20 250 50 0 empty empty empty 0 -10 0 12 #fcfcfc #000000 #000000;
#X obj 244 100 tgl 20 0 empty empty empty 0 -10 0 12 #fcfcfc #000000 #000000 0 1;
#X obj 164 258 snapshot~;
#X obj 223 304 vsl 20 170 -1 1 0 0 empty empty empty 0 -9 0 12 #fcfcfc #000000 #000000 0 1;
#X obj 158 323 > 0;
#X obj 158 348 select 1;
#X obj 158 373 bng 20 250 50 0 empty empty empty 0 -10 0 12 #fcfcfc #000000 #000000;
#X obj 34 266 snapshot~;
#X obj 55 301 vsl 20 170 -1 1 0 0 empty empty empty 0 -9 0 12 #fcfcfc #000000 #000000 0 1;
#X obj 91 323 > 0;
#X obj 91 348 select 1;
#X obj 91 373 bng 20 250 50 0 empty empty empty 0 -10 0 12 #fcfcfc #000000 #000000;
#X msg 245 66 1;
#X obj 245 13 loadbang;
#X obj 33 188 osc~ 3;
#X obj 166 184 osc~ 7;
#X obj 91 398 outlet;
#X obj 158 398 outlet;
#X obj 246 173 metro 600;
#X obj 291 99 inlet;
#X floatatom 291 124 5 0 0 0 - - - 0;
#X obj 245 38 delay 1500;
#X msg 182 137 \; pd dsp \$1;
#X connect 1 0 22 0;
#X connect 1 0 18 0;
#X connect 2 0 3 0;
#X connect 2 0 4 0;
#X connect 2 0 9 1;
#X connect 4 0 5 0;
#X connect 5 0 6 0;
#X connect 6 0 17 0;
#X connect 7 0 8 0;
#X connect 7 0 9 0;
#X connect 9 0 10 0;
#X connect 10 0 11 0;
#X connect 11 0 16 0;
#X connect 12 0 1 0;
#X connect 13 0 21 0;
#X connect 14 0 7 0;
#X connect 15 0 2 0;
#X connect 18 0 0 0;
#X connect 18 0 2 0;
#X connect 18 0 7 0;
#X connect 19 0 18 0;
#X connect 19 0 20 0;
#X connect 21 0 12 0;
#X restore 2554 252 pd hbeat;
#X f 10;
#X obj 2554 308 bng 30 250 50 0 empty empty empty 0 -10 0 12 #ffffff #990400 #000000;
#X obj 2554 159 vsl 40 80 200 600 0 0 empty empty empty 0 -9 0 12 #fcfcfc #000000 #000000 0 1;
#X obj 2554 97 loadbang;
#X obj 2621 308 bng 30 250 50 0 empty empty empty 0 -10 0 12 #ffffff #990400 #000000;
#N canvas 350 405 1053 813 dmx_pack 1;
#X obj 17 19 inlet;
#X obj 17 44 * 2;
#X obj 17 69 i;
#X obj 17 94 t b f;
#X obj 17 289 pack f f f f f f f f f f f f f f f f f f f f, f 123;
#X obj 62 18 inlet;
#X obj 62 43 * 2;
#X obj 62 68 i;
#X obj 62 93 t b f;
#X obj 105 18 inlet;
#X obj 105 43 * 2;
#X obj 105 68 i;
#X obj 105 93 t b f;
#X obj 148 18 inlet;
#X obj 148 43 * 2;
#X obj 148 68 i;
#X obj 148 93 t b f;
#X obj 191 18 inlet;
#X obj 191 43 * 2;
#X obj 191 68 i;
#X obj 191 93 t b f;
#X obj 234 18 inlet;
#X obj 234 43 * 2;
#X obj 234 68 i;
#X obj 234 93 t b f;
#X obj 277 18 inlet;
#X obj 277 43 * 2;
#X obj 277 68 i;
#X obj 277 93 t b f;
#X obj 320 18 inlet;
#X obj 320 43 * 2;
#X obj 320 68 i;
#X obj 320 93 t b f;
#X obj 363 18 inlet;
#X obj 363 43 * 2;
#X obj 363 68 i;
#X obj 363 93 t b f;
#X obj 408 18 inlet;
#X obj 408 43 * 2;
#X obj 408 68 i;
#X obj 408 93 t b f;
#X obj 453 17 inlet;
#X obj 453 42 * 2;
#X obj 453 67 i;
#X obj 453 92 t b f;
#X obj 496 17 inlet;
#X obj 496 42 * 2;
#X obj 496 67 i;
#X obj 496 92 t b f;
#X obj 539 17 inlet;
#X obj 539 42 * 2;
#X obj 539 67 i;
#X obj 539 92 t b f;
#X obj 582 17 inlet;
#X obj 582 42 * 2;
#X obj 582 67 i;
#X obj 582 92 t b f;
#X obj 625 17 inlet;
#X obj 625 42 * 2;
#X obj 625 67 i;
#X obj 625 92 t b f;
#X obj 668 17 inlet;
#X obj 668 42 * 2;
#X obj 668 67 i;
#X obj 668 92 t b f;
#X obj 711 17 inlet;
#X obj 711 42 * 2;
#X obj 711 67 i;
#X obj 711 92 t b f;
#X obj 754 17 inlet;
#X obj 754 42 * 2;
#X obj 754 67 i;
#X obj 754 92 t b f;
#X obj 796 17 inlet;
#X obj 796 42 * 2;
#X obj 796 67 i;
#X obj 796 92 t b f;
#X obj 839 17 inlet;
#X obj 839 42 * 2;
#X obj 839 67 i;
#X obj 839 92 t b f;
#X obj 17 314 list prepend 126 6 1 2 0;
#X obj 17 342 list append 231;
#X obj 397 384 loadbang;
#X obj 371 656 comport 32 57600;
#X msg 531 547 close;
#X obj 13 374 s dmx_msg;
#X obj 85 604 bng 20 250 50 0 empty empty empty 0 -10 0 12 #fcfcfc #000000 #000000;
#X obj 110 604 r dmx_msg;
#X obj 85 631 list;
#X floatatom 481 724 10 0 0 3 baud - - 0;
#X floatatom 562 724 5 0 0 3 port - - 0;
#X obj 642 724 tgl 15 0 empty empty open -6 20 1 11 #14e814 #fc2828 #000000 0 1;
#X obj 724 724 tgl 15 0 empty empty hupcl -6 20 1 11 #14e814 #fc2828 #000000 0 1;
#X floatatom 803 723 8 0 0 3 rxerrors - - 0;
#X obj 481 700 route baud port open hupcl rxerrors, f 58;
#X text 501 680 general info;
#X obj 445 442 metro 600000;
#X msg 406 603 info;
#X obj 642 765 s enttec_open;
#X obj 81 404 r enttec_open;
#X msg 531 572 0;
#X msg 388 488 devicename /dev/enttec;
#X obj 85 571 metro 10;
#X obj 418 541 r dmx_msg;
#X obj 418 566 bng 20 250 50 0 empty empty empty 0 -10 0 12 #fcfcfc #000000 #000000;
#X obj 85 656 s dmx_serial_data;
#X obj 246 622 r dmx_serial_data;
#X obj 223 406 bng 20 250 50 0 empty empty empty 0 -10 0 12 #fcfcfc #000000 #000000;
#X msg 223 431 1;
#X obj 223 462 tgl 20 0 empty empty empty 0 -10 0 12 #fcfcfc #000000 #000000 0 1;
#X msg 257 431 0;
#X obj 223 487 t b f;
#X obj 223 377 r dmx_msg;
#X obj 51 439 tgl 20 0 empty empty empty 0 -10 0 12 #fcfcfc #000000 #000000 0 1;
#X obj 85 497 ||;
#X obj 82 468 t b f;
#X obj 85 533 &&;
#X obj 257 404 r dmx_serial_data;
#X obj 81 429 del 0;
#X connect 0 0 1 0;
#X connect 1 0 2 0;
#X connect 2 0 3 0;
#X connect 3 0 4 0;
#X connect 3 1 4 0;
#X connect 4 0 81 0;
#X connect 5 0 6 0;
#X connect 6 0 7 0;
#X connect 7 0 8 0;
#X connect 8 0 4 0;
#X connect 8 1 4 1;
#X connect 9 0 10 0;
#X connect 10 0 11 0;
#X connect 11 0 12 0;
#X connect 12 0 4 0;
#X connect 12 1 4 2;
#X connect 13 0 14 0;
#X connect 14 0 15 0;
#X connect 15 0 16 0;
#X connect 16 0 4 0;
#X connect 16 1 4 3;
#X connect 17 0 18 0;
#X connect 18 0 19 0;
#X connect 19 0 20 0;
#X connect 20 0 4 0;
#X connect 20 1 4 4;
#X connect 21 0 22 0;
#X connect 22 0 23 0;
#X connect 23 0 24 0;
#X connect 24 0 4 0;
#X connect 24 1 4 5;
#X connect 25 0 26 0;
#X connect 26 0 27 0;
#X connect 27 0 28 0;
#X connect 28 0 4 0;
#X connect 28 1 4 6;
#X connect 29 0 30 0;
#X connect 30 0 31 0;
#X connect 31 0 32 0;
#X connect 32 0 4 0;
#X connect 32 1 4 7;
#X connect 33 0 34 0;
#X connect 34 0 35 0;
#X connect 35 0 36 0;
#X connect 36 0 4 0;
#X connect 36 1 4 8;
#X connect 37 0 38 0;
#X connect 38 0 39 0;
#X connect 39 0 40 0;
#X connect 40 0 4 0;
#X connect 40 1 4 9;
#X connect 41 0 42 0;
#X connect 42 0 43 0;
#X connect 43 0 44 0;
#X connect 44 0 4 0;
#X connect 44 1 4 10;
#X connect 45 0 46 0;
#X connect 46 0 47 0;
#X connect 47 0 48 0;
#X connect 48 0 4 0;
#X connect 48 1 4 11;
#X connect 49 0 50 0;
#X connect 50 0 51 0;
#X connect 51 0 52 0;
#X connect 52 0 4 0;
#X connect 52 1 4 12;
#X connect 53 0 54 0;
#X connect 54 0 55 0;
#X connect 55 0 56 0;
#X connect 56 0 4 0;
#X connect 56 1 4 13;
#X connect 57 0 58 0;
#X connect 58 0 59 0;
#X connect 59 0 60 0;
#X connect 60 0 4 0;
#X connect 60 1 4 14;
#X connect 61 0 62 0;
#X connect 62 0 63 0;
#X connect 63 0 64 0;
#X connect 64 0 4 0;
#X connect 64 1 4 15;
#X connect 65 0 66 0;
#X connect 66 0 67 0;
#X connect 67 0 68 0;
#X connect 68 0 4 0;
#X connect 68 1 4 16;
#X connect 69 0 70 0;
#X connect 70 0 71 0;
#X connect 71 0 72 0;
#X connect 72 0 4 0;
#X connect 72 1 4 17;
#X connect 73 0 74 0;
#X connect 74 0 75 0;
#X connect 75 0 76 0;
#X connect 76 0 4 0;
#X connect 76 1 4 18;
#X connect 77 0 78 0;
#X connect 78 0 79 0;
#X connect 79 0 80 0;
#X connect 80 0 4 0;
#X connect 80 1 4 19;
#X connect 81 0 82 0;
#X connect 82 0 86 0;
#X connect 83 0 102 0;
#X connect 84 1 95 0;
#X connect 85 0 84 0;
#X connect 85 0 101 0;
#X connect 87 0 89 0;
#X connect 88 0 89 1;
#X connect 89 0 106 0;
#X connect 92 0 99 0;
#X connect 95 0 90 0;
#X connect 95 1 91 0;
#X connect 95 2 92 0;
#X connect 95 3 93 0;
#X connect 95 4 94 0;
#X connect 97 0 102 0;
#X connect 98 0 84 0;
#X connect 100 0 119 0;
#X connect 101 0 92 0;
#X connect 102 0 84 0;
#X connect 102 0 98 0;
#X connect 103 0 87 0;
#X connect 104 0 105 0;
#X connect 105 0 98 0;
#X connect 107 0 84 0;
#X connect 108 0 109 0;
#X connect 109 0 110 0;
#X connect 110 0 112 0;
#X connect 111 0 110 0;
#X connect 112 0 117 0;
#X connect 112 1 117 1;
#X connect 113 0 108 0;
#X connect 114 0 115 0;
#X connect 115 0 117 0;
#X connect 116 0 115 0;
#X connect 116 1 115 1;
#X connect 117 0 103 0;
#X connect 118 0 111 0;
#X connect 119 0 116 0;
#X restore 92 1364 pd dmx_pack;
#X f 164;
#N canvas 347 292 1920 984 light_bars 0;
#X obj 17 19 inlet;
#X obj 17 44 * 2;
#X obj 17 69 i;
#X obj 17 94 t b f;
#X obj 62 18 inlet;
#X obj 62 43 * 2;
#X obj 62 68 i;
#X obj 62 93 t b f;
#X obj 105 18 inlet;
#X obj 105 43 * 2;
#X obj 105 68 i;
#X obj 105 93 t b f;
#X obj 148 18 inlet;
#X obj 148 43 * 2;
#X obj 148 68 i;
#X obj 148 93 t b f;
#X obj 191 18 inlet;
#X obj 191 43 * 2;
#X obj 191 68 i;
#X obj 191 93 t b f;
#X obj 234 18 inlet;
#X obj 234 43 * 2;
#X obj 234 68 i;
#X obj 234 93 t b f;
#X obj 277 18 inlet;
#X obj 277 43 * 2;
#X obj 277 68 i;
#X obj 277 93 t b f;
#X obj 320 18 inlet;
#X obj 320 43 * 2;
#X obj 320 68 i;
#X obj 320 93 t b f;
#X obj 17 314 list prepend 126 6 1 2 0;
#X obj 17 342 list append 231;
#X obj 17 367 s lightbars_msg;
#X obj 17 289 pack f f f f f f f f, f 50;
#X obj 69 812 cyclone/append 32 13;
#X obj 69 758 moocow/any2bytes;
#X obj 69 784 cyclone/zl ecils 1;
#X obj 433 513 loadbang;
#X msg 577 663 close;
#X floatatom 511 790 10 0 0 3 baud - - 0;
#X floatatom 592 790 3 0 0 3 port - - 0;
#X obj 672 790 tgl 15 0 empty empty open -6 20 1 11 #14e814 #fc2828 #000000 0 1;
#X obj 754 790 tgl 15 0 empty empty hupcl -6 20 1 11 #14e814 #fc2828 #000000 0 1;
#X floatatom 833 789 8 0 0 3 rxerrors - - 0;
#X obj 511 766 route baud port open hupcl rxerrors, f 58;
#X text 531 746 general info;
#X msg 422 669 info;
#X msg 577 688 0;
#X obj 387 722 comport 32 115200;
#X obj 69 672 list;
#X obj 48 455 tgl 20 0 empty empty empty 0 -10 0 12 #fcfcfc #000000 #000000 0 1;
#X obj 77 509 ||;
#X obj 74 480 t b f;
#X obj 125 722 bng 20 250 50 0 empty empty empty 0 -10 0 12 #fcfcfc #000000 #000000;
#X obj 426 632 bng 20 250 50 0 empty empty empty 0 -10 0 12 #fcfcfc #000000 #000000;
#X obj 78 534 metro 100;
#X msg 387 558 devicename /dev/bars;
#X obj 94 635 r lightbars_msg;
#X obj 425 600 r lightbars_msg;
#X obj 672 831 s bars_open;
#X obj 74 455 r bars_open;
#X obj 69 837 s bars_serial_data;
#X obj 248 690 r bars_serial_data;
#X connect 0 0 1 0;
#X connect 1 0 2 0;
#X connect 2 0 3 0;
#X connect 3 0 35 0;
#X connect 3 1 35 0;
#X connect 4 0 5 0;
#X connect 5 0 6 0;
#X connect 6 0 7 0;
#X connect 7 0 35 0;
#X connect 7 1 35 1;
#X connect 8 0 9 0;
#X connect 9 0 10 0;
#X connect 10 0 11 0;
#X connect 11 0 35 0;
#X connect 11 1 35 2;
#X connect 12 0 13 0;
#X connect 13 0 14 0;
#X connect 14 0 15 0;
#X connect 15 0 35 0;
#X connect 15 1 35 3;
#X connect 16 0 17 0;
#X connect 17 0 18 0;
#X connect 18 0 19 0;
#X connect 19 0 35 0;
#X connect 19 1 35 4;
#X connect 20 0 21 0;
#X connect 21 0 22 0;
#X connect 22 0 23 0;
#X connect 23 0 35 0;
#X connect 23 1 35 5;
#X connect 24 0 25 0;
#X connect 25 0 26 0;
#X connect 26 0 27 0;
#X connect 27 0 35 0;
#X connect 27 1 35 6;
#X connect 28 0 29 0;
#X connect 29 0 30 0;
#X connect 30 0 31 0;
#X connect 31 0 35 0;
#X connect 31 1 35 7;
#X connect 32 0 33 0;
#X connect 33 0 34 0;
#X connect 35 0 32 0;
#X connect 36 0 63 0;
#X connect 37 0 38 0;
#X connect 38 0 36 0;
#X connect 39 0 58 0;
#X connect 40 0 49 0;
#X connect 40 0 50 0;
#X connect 43 0 61 0;
#X connect 46 0 41 0;
#X connect 46 1 42 0;
#X connect 46 2 43 0;
#X connect 46 3 44 0;
#X connect 46 4 45 0;
#X connect 48 0 50 0;
#X connect 49 0 43 0;
#X connect 50 1 46 0;
#X connect 51 0 37 0;
#X connect 51 0 55 0;
#X connect 52 0 53 0;
#X connect 53 0 57 0;
#X connect 54 0 53 0;
#X connect 54 1 53 1;
#X connect 56 0 48 0;
#X connect 57 0 51 0;
#X connect 58 0 50 0;
#X connect 58 0 48 0;
#X connect 59 0 51 1;
#X connect 60 0 56 0;
#X connect 62 0 54 0;
#X connect 64 0 50 0;
#X restore 1656 1364 pd light_bars;
#X f 56;
#N canvas 611 233 2970 1630 heartbeat 0;
#X obj 17 6 inlet;
#X obj 135 3 inlet;
#X obj 65 581 cyclone/append 32 13;
#X obj 64 527 moocow/any2bytes;
#X obj 64 553 cyclone/zl ecils 1;
#X obj 393 357 loadbang;
#X obj 560 375 delay 100;
#X msg 368 398 devicename /dev/ttyUSB0;
#X msg 229 420 devices usb;
#X msg 561 425 open 32;
#X msg 561 454 close;
#X obj 65 426 bng 20 250 50 0 empty empty empty 0 -10 0 12 #fcfcfc #000000 #000000;
#X obj 65 453 list;
#X obj 65 401 metro 20;
#X floatatom 475 634 10 0 0 3 baud - - 0;
#X floatatom 556 634 3 0 0 3 port - - 0;
#X obj 636 634 tgl 15 0 empty empty open -6 20 1 11 #14e814 #fc2828 #000000 0 1;
#X obj 718 634 tgl 15 0 empty empty hupcl -6 20 1 11 #14e814 #fc2828 #000000 0 1;
#X floatatom 797 633 8 0 0 3 rxerrors - - 0;
#X obj 475 610 route baud port open hupcl rxerrors, f 58;
#X text 495 590 general info;
#X obj 655 374 metro 600000;
#X msg 227 451 devices;
#X msg 224 480 ports;
#X msg 386 513 info;
#X obj 385 460 tgl 20 0 empty empty empty 0 -10 0 12 #fcfcfc #000000 #000000 0 1;
#X msg 385 435 1;
#X obj 386 486 metro 100;
#X msg 561 479 0;
#X obj 351 566 comport 32 115200;
#X obj 351 594 print LIGHT_BARS;
#X obj 636 675 s heartbeat_open;
#X obj 65 368 r heartbeat_open;
#X obj 90 426 r heartbeat_msg;
#X obj 64 255 s heartbeat_msg;
#X obj 64 215 pack f f;
#X msg 78 114 1;
#X msg 34 114 0;
#X msg 184 113 1;
#X msg 141 113 0;
#X obj 17 31 bng 20 250 50 0 empty empty empty 0 -10 0 12 #fcfcfc #000000 #000000;
#X obj 135 28 bng 20 250 50 0 empty empty empty 0 -10 0 12 #fcfcfc #000000 #000000;
#X obj 17 57 delay 100;
#X obj 135 53 delay 100;
#X obj 34 139 t b f;
#X obj 78 139 t b f;
#X obj 141 138 t b f;
#X obj 184 138 t b f;
#X connect 0 0 40 0;
#X connect 1 0 41 0;
#X connect 2 0 29 0;
#X connect 3 0 4 0;
#X connect 4 0 2 0;
#X connect 5 0 7 0;
#X connect 5 0 6 0;
#X connect 5 0 26 0;
#X connect 6 0 9 0;
#X connect 7 0 29 0;
#X connect 8 0 29 0;
#X connect 9 0 29 0;
#X connect 10 0 28 0;
#X connect 10 0 29 0;
#X connect 11 0 12 0;
#X connect 12 0 3 0;
#X connect 13 0 11 0;
#X connect 16 0 31 0;
#X connect 19 0 14 0;
#X connect 19 1 15 0;
#X connect 19 2 16 0;
#X connect 19 3 17 0;
#X connect 19 4 18 0;
#X connect 21 0 9 0;
#X connect 22 0 29 0;
#X connect 23 0 29 0;
#X connect 24 0 29 0;
#X connect 25 0 27 0;
#X connect 26 0 25 0;
#X connect 27 0 24 0;
#X connect 28 0 16 0;
#X connect 29 0 30 0;
#X connect 29 1 19 0;
#X connect 32 0 13 0;
#X connect 33 0 12 1;
#X connect 35 0 34 0;
#X connect 36 0 45 0;
#X connect 37 0 44 0;
#X connect 38 0 47 0;
#X connect 39 0 46 0;
#X connect 40 0 36 0;
#X connect 40 0 42 0;
#X connect 41 0 38 0;
#X connect 41 0 43 0;
#X connect 42 0 37 0;
#X connect 43 0 39 0;
#X connect 44 0 35 0;
#X connect 44 1 35 0;
#X connect 45 0 35 0;
#X connect 45 1 35 0;
#X connect 46 0 35 0;
#X connect 46 1 35 1;
#X connect 47 0 35 0;
#X connect 47 1 35 1;
#X restore 2363 385 pd heartbeat;
#X f 56;
#X text 694 1042 CRITICAL CARE UNIT (dimmer addr: 1001000000);
#X obj 1337 1073 route 0 1 2 3 4, f 31;
#X obj 1556 1165 vsl 20 170 0 127 0 0 empty empty empty 0 -9 0 12 #fcfcfc #000000 #000000 0 1;
#N canvas 1091 311 935 822 pumps 1;
#X obj 17 19 inlet;
#X obj 18 95 i;
#X obj 18 120 t b f;
#X obj 78 18 inlet;
#X obj 78 43 * 2;
#X obj 78 68 i;
#X obj 78 93 t b f;
#X obj 121 18 inlet;
#X obj 121 43 * 2;
#X obj 121 68 i;
#X obj 121 93 t b f;
#X obj 164 18 inlet;
#X obj 164 43 * 2;
#X obj 164 68 i;
#X obj 164 93 t b f;
#X obj 207 18 inlet;
#X obj 207 43 * 2;
#X obj 207 68 i;
#X obj 207 93 t b f;
#X obj 61 746 cyclone/append 32 13;
#X obj 61 692 moocow/any2bytes;
#X obj 61 718 cyclone/zl ecils 1;
#X obj 417 447 loadbang;
#X msg 561 597 close;
#X floatatom 495 724 10 0 0 3 baud - - 0;
#X floatatom 576 724 5 0 0 3 port - - 0;
#X obj 656 724 tgl 15 0 empty empty open -6 20 1 11 #14e814 #fc2828 #000000 0 1;
#X obj 738 724 tgl 15 0 empty empty hupcl -6 20 1 11 #14e814 #fc2828 #000000 0 1;
#X floatatom 817 723 8 0 0 3 rxerrors - - 0;
#X obj 495 700 route baud port open hupcl rxerrors, f 58;
#X text 515 680 general info;
#X msg 406 603 info;
#X msg 561 622 0;
#X obj 371 656 comport 32 115200;
#X msg 371 492 devicename /dev/pumps;
#X obj 16 286 pack f f f f f, f 50;
#X obj 58 389 r pumps_open;
#X obj 656 765 s pumps_open;
#X obj 18 44 * 32;
#X obj 18 69 + 1000;
#X obj 61 606 list;
#X obj 32 389 tgl 20 0 empty empty empty 0 -10 0 12 #fcfcfc #000000 #000000 0 1;
#X obj 61 443 ||;
#X obj 58 414 t b f;
#X obj 19 319 s pumps_msg;
#X obj 78 569 r pumps_msg;
#X obj 409 534 r pumps_msg;
#X obj 410 566 bng 20 250 50 0 empty empty empty 0 -10 0 12 #fcfcfc #000000 #000000;
#X obj 61 509 metro 100;
#X obj 61 771 s pumps_serial_data;
#X obj 232 624 r pumps_serial_data;
#X obj 184 352 bng 20 250 50 0 empty empty empty 0 -10 0 12 #fcfcfc #000000 #000000;
#X msg 184 377 1;
#X obj 184 408 tgl 20 0 empty empty empty 0 -10 0 12 #fcfcfc #000000 #000000 0 1;
#X msg 218 377 0;
#X obj 61 481 &&;
#X obj 184 433 t b f;
#X obj 184 324 r pumps_msg;
#X obj 218 350 r pumps_serial_data;
#X obj 552 308 cyclone/zl;
#X connect 0 0 38 0;
#X connect 1 0 2 0;
#X connect 2 0 35 0;
#X connect 2 1 35 0;
#X connect 3 0 4 0;
#X connect 4 0 5 0;
#X connect 5 0 6 0;
#X connect 6 0 35 0;
#X connect 6 1 35 1;
#X connect 7 0 8 0;
#X connect 8 0 9 0;
#X connect 9 0 10 0;
#X connect 10 0 35 0;
#X connect 10 1 35 2;
#X connect 11 0 12 0;
#X connect 12 0 13 0;
#X connect 13 0 14 0;
#X connect 14 0 35 0;
#X connect 14 1 35 3;
#X connect 15 0 16 0;
#X connect 16 0 17 0;
#X connect 17 0 18 0;
#X connect 18 0 35 0;
#X connect 18 1 35 4;
#X connect 19 0 49 0;
#X connect 20 0 21 0;
#X connect 21 0 19 0;
#X connect 22 0 34 0;
#X connect 23 0 32 0;
#X connect 23 0 33 0;
#X connect 26 0 37 0;
#X connect 29 0 24 0;
#X connect 29 1 25 0;
#X connect 29 2 26 0;
#X connect 29 3 27 0;
#X connect 29 4 28 0;
#X connect 31 0 33 0;
#X connect 32 0 26 0;
#X connect 33 1 29 0;
#X connect 34 0 33 0;
#X connect 34 0 31 0;
#X connect 35 0 44 0;
#X connect 36 0 43 0;
#X connect 38 0 39 0;
#X connect 39 0 1 0;
#X connect 40 0 20 0;
#X connect 41 0 42 0;
#X connect 42 0 55 0;
#X connect 43 0 42 0;
#X connect 43 1 42 1;
#X connect 45 0 40 1;
#X connect 46 0 47 0;
#X connect 47 0 31 0;
#X connect 48 0 40 0;
#X connect 50 0 33 0;
#X connect 51 0 52 0;
#X connect 52 0 53 0;
#X connect 53 0 56 0;
#X connect 54 0 53 0;
#X connect 55 0 48 0;
#X connect 56 0 55 0;
#X connect 56 1 55 1;
#X connect 57 0 51 0;
#X connect 58 0 54 0;
#X restore 1341 1364 pd pumps;
#X f 33;
#X msg 2554 127 230;
#N canvas 252 188 2613 451 inter 0;
#X obj 61 80 line 0 10;
#X msg 61 55 \$1 10;
#X obj 61 30 inlet;
#X obj 61 105 outlet;
#X obj 148 79 line 0 10;
#X msg 148 54 \$1 10;
#X obj 148 29 inlet;
#X obj 148 104 outlet;
#X obj 232 82 line 0 10;
#X msg 232 57 \$1 10;
#X obj 232 32 inlet;
#X obj 232 107 outlet;
#X obj 319 81 line 0 10;
#X msg 319 56 \$1 10;
#X obj 319 31 inlet;
#X obj 319 106 outlet;
#X obj 407 79 line 0 10;
#X msg 407 54 \$1 10;
#X obj 407 29 inlet;
#X obj 407 104 outlet;
#X obj 494 78 line 0 10;
#X msg 494 53 \$1 10;
#X obj 494 28 inlet;
#X obj 494 103 outlet;
#X obj 578 81 line 0 10;
#X msg 578 56 \$1 10;
#X obj 578 31 inlet;
#X obj 578 106 outlet;
#X obj 665 80 line 0 10;
#X msg 665 55 \$1 10;
#X obj 665 30 inlet;
#X obj 665 105 outlet;
#X connect 0 0 3 0;
#X connect 1 0 0 0;
#X connect 2 0 1 0;
#X connect 4 0 7 0;
#X connect 5 0 4 0;
#X connect 6 0 5 0;
#X connect 8 0 11 0;
#X connect 9 0 8 0;
#X connect 10 0 9 0;
#X connect 12 0 15 0;
#X connect 13 0 12 0;
#X connect 14 0 13 0;
#X connect 16 0 19 0;
#X connect 17 0 16 0;
#X connect 18 0 17 0;
#X connect 20 0 23 0;
#X connect 21 0 20 0;
#X connect 22 0 21 0;
#X connect 24 0 27 0;
#X connect 25 0 24 0;
#X connect 26 0 25 0;
#X connect 28 0 31 0;
#X connect 29 0 28 0;
#X connect 30 0 29 0;
#X restore 92 1103 pd inter;
#X f 60;
#N canvas 252 188 2613 451 inter 0;
#X obj 61 80 line 0 10;
#X msg 61 55 \$1 10;
#X obj 61 30 inlet;
#X obj 61 105 outlet;
#X obj 148 79 line 0 10;
#X msg 148 54 \$1 10;
#X obj 148 29 inlet;
#X obj 148 104 outlet;
#X obj 232 82 line 0 10;
#X msg 232 57 \$1 10;
#X obj 232 32 inlet;
#X obj 232 107 outlet;
#X obj 319 81 line 0 10;
#X msg 319 56 \$1 10;
#X obj 319 31 inlet;
#X obj 319 106 outlet;
#X obj 407 79 line 0 10;
#X msg 407 54 \$1 10;
#X obj 407 29 inlet;
#X obj 407 104 outlet;
#X obj 494 78 line 0 10;
#X msg 494 53 \$1 10;
#X obj 494 28 inlet;
#X obj 494 103 outlet;
#X obj 578 81 line 0 10;
#X msg 578 56 \$1 10;
#X obj 578 31 inlet;
#X obj 578 106 outlet;
#X obj 665 80 line 0 10;
#X msg 665 55 \$1 10;
#X obj 665 30 inlet;
#X obj 665 105 outlet;
#X connect 0 0 3 0;
#X connect 1 0 0 0;
#X connect 2 0 1 0;
#X connect 4 0 7 0;
#X connect 5 0 4 0;
#X connect 6 0 5 0;
#X connect 8 0 11 0;
#X connect 9 0 8 0;
#X connect 10 0 9 0;
#X connect 12 0 15 0;
#X connect 13 0 12 0;
#X connect 14 0 13 0;
#X connect 16 0 19 0;
#X connect 17 0 16 0;
#X connect 18 0 17 0;
#X connect 20 0 23 0;
#X connect 21 0 20 0;
#X connect 22 0 21 0;
#X connect 24 0 27 0;
#X connect 25 0 24 0;
#X connect 26 0 25 0;
#X connect 28 0 31 0;
#X connect 29 0 28 0;
#X connect 30 0 29 0;
#X restore 579 1103 pd inter;
#X f 60;
#N canvas 252 188 2613 451 inter 0;
#X obj 61 80 line 0 10;
#X msg 61 55 \$1 10;
#X obj 61 30 inlet;
#X obj 61 105 outlet;
#X obj 148 79 line 0 10;
#X msg 148 54 \$1 10;
#X obj 148 29 inlet;
#X obj 148 104 outlet;
#X obj 232 82 line 0 10;
#X msg 232 57 \$1 10;
#X obj 232 32 inlet;
#X obj 232 107 outlet;
#X obj 319 81 line 0 10;
#X msg 319 56 \$1 10;
#X obj 319 31 inlet;
#X obj 319 106 outlet;
#X connect 0 0 3 0;
#X connect 1 0 0 0;
#X connect 2 0 1 0;
#X connect 4 0 7 0;
#X connect 5 0 4 0;
#X connect 6 0 5 0;
#X connect 8 0 11 0;
#X connect 9 0 8 0;
#X connect 10 0 9 0;
#X connect 12 0 15 0;
#X connect 13 0 12 0;
#X connect 14 0 13 0;
#X restore 1059 1103 pd inter;
#X f 31;
#N canvas 252 188 2613 451 inter 0;
#X obj 61 80 line 0 10;
#X msg 61 55 \$1 10;
#X obj 61 30 inlet;
#X obj 61 105 outlet;
#X obj 148 79 line 0 10;
#X msg 148 54 \$1 10;
#X obj 148 29 inlet;
#X obj 148 104 outlet;
#X obj 232 82 line 0 10;
#X msg 232 57 \$1 10;
#X obj 232 32 inlet;
#X obj 232 107 outlet;
#X obj 319 81 line 0 10;
#X msg 319 56 \$1 10;
#X obj 319 31 inlet;
#X obj 319 106 outlet;
#X obj 401 84 line 0 10;
#X msg 401 59 \$1 10;
#X obj 401 34 inlet;
#X obj 401 109 outlet;
#X connect 0 0 3 0;
#X connect 1 0 0 0;
#X connect 2 0 1 0;
#X connect 4 0 7 0;
#X connect 5 0 4 0;
#X connect 6 0 5 0;
#X connect 8 0 11 0;
#X connect 9 0 8 0;
#X connect 10 0 9 0;
#X connect 12 0 15 0;
#X connect 13 0 12 0;
#X connect 14 0 13 0;
#X connect 16 0 19 0;
#X connect 17 0 16 0;
#X connect 18 0 17 0;
#X restore 1337 1103 pd inter;
#X f 31;
#N canvas 252 188 2613 451 inter 0;
#X obj 61 80 line 0 10;
#X msg 61 55 \$1 10;
#X obj 61 30 inlet;
#X obj 61 105 outlet;
#X obj 148 79 line 0 10;
#X msg 148 54 \$1 10;
#X obj 148 29 inlet;
#X obj 148 104 outlet;
#X obj 232 82 line 0 10;
#X msg 232 57 \$1 10;
#X obj 232 32 inlet;
#X obj 232 107 outlet;
#X obj 319 81 line 0 10;
#X msg 319 56 \$1 10;
#X obj 319 31 inlet;
#X obj 319 106 outlet;
#X obj 407 79 line 0 10;
#X msg 407 54 \$1 10;
#X obj 407 29 inlet;
#X obj 407 104 outlet;
#X obj 494 78 line 0 10;
#X msg 494 53 \$1 10;
#X obj 494 28 inlet;
#X obj 494 103 outlet;
#X obj 578 81 line 0 10;
#X msg 578 56 \$1 10;
#X obj 578 31 inlet;
#X obj 578 106 outlet;
#X obj 665 80 line 0 10;
#X msg 665 55 \$1 10;
#X obj 665 30 inlet;
#X obj 665 105 outlet;
#X connect 0 0 3 0;
#X connect 1 0 0 0;
#X connect 2 0 1 0;
#X connect 4 0 7 0;
#X connect 5 0 4 0;
#X connect 6 0 5 0;
#X connect 8 0 11 0;
#X connect 9 0 8 0;
#X connect 10 0 9 0;
#X connect 12 0 15 0;
#X connect 13 0 12 0;
#X connect 14 0 13 0;
#X connect 16 0 19 0;
#X connect 17 0 16 0;
#X connect 18 0 17 0;
#X connect 20 0 23 0;
#X connect 21 0 20 0;
#X connect 22 0 21 0;
#X connect 24 0 27 0;
#X connect 25 0 24 0;
#X connect 26 0 25 0;
#X connect 28 0 31 0;
#X connect 29 0 28 0;
#X connect 30 0 29 0;
#X restore 1655 1103 pd inter;
#X f 60;
#N canvas 252 188 2613 451 inter 0;
#X obj 61 80 line 0 10;
#X msg 61 55 \$1 10;
#X obj 61 30 inlet;
#X obj 61 105 outlet;
#X obj 148 79 line 0 10;
#X msg 148 54 \$1 10;
#X obj 148 29 inlet;
#X obj 148 104 outlet;
#X obj 232 82 line 0 10;
#X msg 232 57 \$1 10;
#X obj 232 32 inlet;
#X obj 232 107 outlet;
#X obj 319 81 line 0 10;
#X msg 319 56 \$1 10;
#X obj 319 31 inlet;
#X obj 319 106 outlet;
#X obj 407 79 line 0 10;
#X msg 407 54 \$1 10;
#X obj 407 29 inlet;
#X obj 407 104 outlet;
#X obj 494 78 line 0 10;
#X msg 494 53 \$1 10;
#X obj 494 28 inlet;
#X obj 494 103 outlet;
#X obj 578 81 line 0 10;
#X msg 578 56 \$1 10;
#X obj 578 31 inlet;
#X obj 578 106 outlet;
#X obj 665 80 line 0 10;
#X msg 665 55 \$1 10;
#X obj 665 30 inlet;
#X obj 665 105 outlet;
#X connect 0 0 3 0;
#X connect 1 0 0 0;
#X connect 2 0 1 0;
#X connect 4 0 7 0;
#X connect 5 0 4 0;
#X connect 6 0 5 0;
#X connect 8 0 11 0;
#X connect 9 0 8 0;
#X connect 10 0 9 0;
#X connect 12 0 15 0;
#X connect 13 0 12 0;
#X connect 14 0 13 0;
#X connect 16 0 19 0;
#X connect 17 0 16 0;
#X connect 18 0 17 0;
#X connect 20 0 23 0;
#X connect 21 0 20 0;
#X connect 22 0 21 0;
#X connect 24 0 27 0;
#X connect 25 0 24 0;
#X connect 26 0 25 0;
#X connect 28 0 31 0;
#X connect 29 0 28 0;
#X connect 30 0 29 0;
#X restore 2440 1103 pd inter;
#X f 60;
#N canvas 252 188 2613 451 inter 0;
#X obj 61 80 line 0 10;
#X msg 61 55 \$1 10;
#X obj 61 30 inlet;
#X obj 61 105 outlet;
#X obj 148 79 line 0 10;
#X msg 148 54 \$1 10;
#X obj 148 29 inlet;
#X obj 148 104 outlet;
#X obj 232 82 line 0 10;
#X msg 232 57 \$1 10;
#X obj 232 32 inlet;
#X obj 232 107 outlet;
#X obj 319 81 line 0 10;
#X msg 319 56 \$1 10;
#X obj 319 31 inlet;
#X obj 319 106 outlet;
#X connect 0 0 3 0;
#X connect 1 0 0 0;
#X connect 2 0 1 0;
#X connect 4 0 7 0;
#X connect 5 0 4 0;
#X connect 6 0 5 0;
#X connect 8 0 11 0;
#X connect 9 0 8 0;
#X connect 10 0 9 0;
#X connect 12 0 15 0;
#X connect 13 0 12 0;
#X connect 14 0 13 0;
#X restore 2122 1103 pd inter;
#X f 31;
#N canvas 1091 311 935 822 respirators 1;
#X obj 17 19 inlet;
#X obj 18 95 i;
#X obj 18 120 t b f;
#X obj 78 18 inlet;
#X obj 78 43 * 2;
#X obj 78 68 i;
#X obj 78 93 t b f;
#X obj 121 18 inlet;
#X obj 121 43 * 2;
#X obj 121 68 i;
#X obj 121 93 t b f;
#X obj 164 18 inlet;
#X obj 164 43 * 2;
#X obj 164 68 i;
#X obj 164 93 t b f;
#X obj 61 746 cyclone/append 32 13;
#X obj 61 692 moocow/any2bytes;
#X obj 61 718 cyclone/zl ecils 1;
#X obj 417 447 loadbang;
#X msg 561 597 close;
#X floatatom 495 724 10 0 0 3 baud - - 0;
#X floatatom 576 724 5 0 0 3 port - - 0;
#X obj 656 724 tgl 15 0 empty empty open -6 20 1 11 #14e814 #fc2828 #000000 0 1;
#X obj 738 724 tgl 15 0 empty empty hupcl -6 20 1 11 #14e814 #fc2828 #000000 0 1;
#X floatatom 817 723 8 0 0 3 rxerrors - - 0;
#X obj 495 700 route baud port open hupcl rxerrors, f 58;
#X text 515 680 general info;
#X msg 406 603 info;
#X msg 561 622 0;
#X obj 371 656 comport 32 115200;
#X obj 18 44 * 32;
#X obj 18 69 + 1000;
#X obj 61 606 list;
#X obj 32 389 tgl 20 0 empty empty empty 0 -10 0 12 #fcfcfc #000000 #000000 0 1;
#X obj 61 443 ||;
#X obj 58 414 t b f;
#X obj 410 566 bng 20 250 50 0 empty empty empty 0 -10 0 12 #fcfcfc #000000 #000000;
#X obj 61 509 metro 100;
#X obj 184 352 bng 20 250 50 0 empty empty empty 0 -10 0 12 #fcfcfc #000000 #000000;
#X msg 184 377 1;
#X obj 184 408 tgl 20 0 empty empty empty 0 -10 0 12 #fcfcfc #000000 #000000 0 1;
#X msg 218 377 0;
#X obj 61 481 &&;
#X obj 184 433 t b f;
#X obj 16 286 pack f f f f, f 27;
#X obj 19 319 s resp_msg;
#X obj 184 324 r resp_msg;
#X obj 86 569 r resp_msg;
#X obj 218 350 r resp_serial_data;
#X obj 58 389 r resp_open;
#X obj 61 771 s resp_serial_data;
#X obj 232 624 r resp_serial_data;
#X obj 409 534 r resp_msg;
#X msg 371 492 devicename /dev/respirator;
#X obj 656 765 s resp_open;
#X connect 0 0 30 0;
#X connect 1 0 2 0;
#X connect 2 0 44 0;
#X connect 2 1 44 0;
#X connect 3 0 4 0;
#X connect 4 0 5 0;
#X connect 5 0 6 0;
#X connect 6 0 44 0;
#X connect 6 1 44 1;
#X connect 7 0 8 0;
#X connect 8 0 9 0;
#X connect 9 0 10 0;
#X connect 10 0 44 0;
#X connect 10 1 44 2;
#X connect 11 0 12 0;
#X connect 12 0 13 0;
#X connect 13 0 14 0;
#X connect 14 0 44 0;
#X connect 14 1 44 3;
#X connect 15 0 50 0;
#X connect 16 0 17 0;
#X connect 17 0 15 0;
#X connect 18 0 53 0;
#X connect 19 0 28 0;
#X connect 19 0 29 0;
#X connect 22 0 54 0;
#X connect 25 0 20 0;
#X connect 25 1 21 0;
#X connect 25 2 22 0;
#X connect 25 3 23 0;
#X connect 25 4 24 0;
#X connect 27 0 29 0;
#X connect 28 0 22 0;
#X connect 29 1 25 0;
#X connect 30 0 31 0;
#X connect 31 0 1 0;
#X connect 32 0 16 0;
#X connect 33 0 34 0;
#X connect 34 0 42 0;
#X connect 35 0 34 0;
#X connect 35 1 34 1;
#X connect 36 0 27 0;
#X connect 37 0 32 0;
#X connect 38 0 39 0;
#X connect 39 0 40 0;
#X connect 40 0 43 0;
#X connect 41 0 40 0;
#X connect 42 0 37 0;
#X connect 43 0 42 0;
#X connect 43 1 42 1;
#X connect 44 0 45 0;
#X connect 46 0 38 0;
#X connect 47 0 32 1;
#X connect 48 0 41 0;
#X connect 49 0 35 0;
#X connect 51 0 29 0;
#X connect 52 0 36 0;
#X connect 53 0 29 0;
#X connect 53 0 27 0;
#X restore 2122 1348 pd respirators;
#X f 24;
#X obj 499 102 del 0;
#X connect 0 0 1 0;
#X connect 0 1 1 1;
#X connect 1 0 2 0;
#X connect 2 0 3 0;
#X connect 4 0 15 0;
#X connect 5 0 4 0;
#X connect 5 0 4 1;
#X connect 5 0 18 0;
#X connect 5 0 155 0;
#X connect 5 0 155 1;
#X connect 6 0 7 0;
#X connect 7 0 8 0;
#X connect 7 0 14 0;
#X connect 8 0 9 0;
#X connect 9 0 10 0;
#X connect 11 0 12 0;
#X connect 12 0 13 0;
#X connect 14 0 11 0;
#X connect 16 0 4 1;
#X connect 17 0 16 0;
#X connect 17 0 5 0;
#X connect 19 0 279 0;
#X connect 20 0 43 0;
#X connect 21 0 23 1;
#X connect 22 0 24 0;
#X connect 23 0 25 0;
#X connect 24 0 23 0;
#X connect 25 0 48 0;
#X connect 26 0 238 0;
#X connect 29 0 27 0;
#X connect 30 0 27 0;
#X connect 33 0 34 0;
#X connect 34 0 31 0;
#X connect 34 1 35 0;
#X connect 34 2 36 0;
#X connect 34 3 37 0;
#X connect 34 4 38 0;
#X connect 34 5 39 0;
#X connect 34 6 40 0;
#X connect 34 7 41 0;
#X connect 42 0 45 0;
#X connect 42 1 44 0;
#X connect 42 2 44 1;
#X connect 42 3 44 2;
#X connect 43 0 19 0;
#X connect 43 0 279 0;
#X connect 44 0 49 0;
#X connect 45 0 44 0;
#X connect 45 0 21 0;
#X connect 45 1 21 0;
#X connect 47 0 279 0;
#X connect 50 0 51 0;
#X connect 52 0 53 0;
#X connect 54 0 55 0;
#X connect 56 0 278 0;
#X connect 57 0 118 0;
#X connect 58 0 60 1;
#X connect 59 0 61 0;
#X connect 60 0 62 0;
#X connect 61 0 60 0;
#X connect 62 0 111 0;
#X connect 63 0 237 0;
#X connect 64 0 66 0;
#X connect 64 1 65 0;
#X connect 64 2 65 1;
#X connect 64 3 65 2;
#X connect 65 0 113 0;
#X connect 66 0 65 0;
#X connect 66 0 58 0;
#X connect 66 1 58 0;
#X connect 68 0 69 0;
#X connect 71 0 353 0;
#X connect 72 0 361 0;
#X connect 72 1 361 1;
#X connect 72 2 361 2;
#X connect 72 3 361 3;
#X connect 72 4 361 4;
#X connect 72 5 361 5;
#X connect 72 6 361 6;
#X connect 72 7 361 7;
#X connect 73 0 353 1;
#X connect 74 0 353 2;
#X connect 75 0 353 3;
#X connect 76 0 353 4;
#X connect 77 0 353 5;
#X connect 78 0 353 6;
#X connect 79 0 353 7;
#X connect 80 0 72 0;
#X connect 82 0 353 8;
#X connect 83 0 362 0;
#X connect 83 1 362 1;
#X connect 83 2 362 2;
#X connect 83 3 362 3;
#X connect 83 4 362 4;
#X connect 83 5 362 5;
#X connect 83 6 362 6;
#X connect 83 7 362 7;
#X connect 84 0 353 9;
#X connect 85 0 353 10;
#X connect 86 0 353 11;
#X connect 87 0 353 12;
#X connect 88 0 353 13;
#X connect 89 0 353 14;
#X connect 90 0 353 15;
#X connect 91 0 100 0;
#X connect 91 1 121 0;
#X connect 92 0 91 0;
#X connect 93 0 119 0;
#X connect 94 0 96 1;
#X connect 95 0 97 0;
#X connect 96 0 98 0;
#X connect 97 0 96 0;
#X connect 98 0 125 0;
#X connect 99 0 239 0;
#X connect 100 0 102 0;
#X connect 100 1 101 0;
#X connect 100 2 101 1;
#X connect 100 3 101 2;
#X connect 101 0 124 0;
#X connect 102 0 101 0;
#X connect 102 0 94 0;
#X connect 102 1 94 0;
#X connect 104 0 105 0;
#X connect 107 0 353 16;
#X connect 108 0 353 17;
#X connect 109 0 353 18;
#X connect 110 0 353 19;
#X connect 112 0 83 0;
#X connect 114 0 70 0;
#X connect 115 0 67 0;
#X connect 116 0 278 0;
#X connect 118 0 56 0;
#X connect 118 0 278 0;
#X connect 119 0 91 0;
#X connect 119 0 92 0;
#X connect 120 0 91 0;
#X connect 122 0 103 0;
#X connect 123 0 106 0;
#X connect 126 0 128 0;
#X connect 128 0 363 0;
#X connect 128 1 363 1;
#X connect 128 2 363 2;
#X connect 128 3 363 3;
#X connect 129 0 138 0;
#X connect 129 1 153 0;
#X connect 130 0 129 0;
#X connect 131 0 157 0;
#X connect 132 0 134 1;
#X connect 133 0 135 0;
#X connect 134 0 136 0;
#X connect 135 0 134 0;
#X connect 136 0 151 0;
#X connect 137 0 240 0;
#X connect 138 0 140 0;
#X connect 138 1 139 0;
#X connect 138 2 139 1;
#X connect 138 3 139 2;
#X connect 139 0 149 0;
#X connect 140 0 139 0;
#X connect 140 0 132 0;
#X connect 140 1 132 0;
#X connect 142 0 143 0;
#X connect 145 0 359 0;
#X connect 146 0 359 1;
#X connect 147 0 359 2;
#X connect 148 0 359 3;
#X connect 150 0 144 0;
#X connect 152 0 357 0;
#X connect 154 0 141 0;
#X connect 155 0 232 0;
#X connect 155 0 235 0;
#X connect 156 0 27 0;
#X connect 157 0 129 0;
#X connect 157 0 130 0;
#X connect 158 0 129 0;
#X connect 159 0 168 0;
#X connect 159 1 186 0;
#X connect 160 0 159 0;
#X connect 161 0 184 0;
#X connect 162 0 164 1;
#X connect 163 0 165 0;
#X connect 164 0 166 0;
#X connect 165 0 164 0;
#X connect 166 0 190 0;
#X connect 167 0 241 0;
#X connect 168 0 170 0;
#X connect 168 1 169 0;
#X connect 168 2 169 1;
#X connect 168 3 169 2;
#X connect 169 0 189 0;
#X connect 170 0 169 0;
#X connect 170 0 162 0;
#X connect 170 1 162 0;
#X connect 172 0 173 0;
#X connect 175 0 354 0;
#X connect 176 0 365 0;
#X connect 176 1 365 1;
#X connect 176 2 365 2;
#X connect 176 3 365 3;
#X connect 176 4 365 4;
#X connect 176 5 365 5;
#X connect 176 6 365 6;
#X connect 176 7 365 7;
#X connect 177 0 354 1;
#X connect 178 0 354 2;
#X connect 179 0 354 3;
#X connect 180 0 354 4;
#X connect 181 0 354 5;
#X connect 182 0 354 6;
#X connect 183 0 354 7;
#X connect 184 0 159 0;
#X connect 184 0 160 0;
#X connect 185 0 159 0;
#X connect 187 0 171 0;
#X connect 188 0 174 0;
#X connect 191 0 176 0;
#X connect 194 0 203 0;
#X connect 194 1 221 0;
#X connect 195 0 194 0;
#X connect 196 0 223 0;
#X connect 197 0 199 1;
#X connect 198 0 200 0;
#X connect 199 0 201 0;
#X connect 200 0 199 0;
#X connect 201 0 215 0;
#X connect 202 0 242 0;
#X connect 203 0 205 0;
#X connect 203 1 204 0;
#X connect 203 2 204 1;
#X connect 203 3 204 2;
#X connect 204 0 220 0;
#X connect 205 0 204 0;
#X connect 205 0 197 0;
#X connect 205 1 197 0;
#X connect 207 0 208 0;
#X connect 210 0 368 0;
#X connect 211 0 368 1;
#X connect 212 0 368 2;
#X connect 213 0 368 3;
#X connect 214 0 367 0;
#X connect 214 1 367 1;
#X connect 214 2 367 2;
#X connect 214 3 367 3;
#X connect 216 0 214 0;
#X connect 218 0 209 0;
#X connect 219 0 206 0;
#X connect 222 0 194 0;
#X connect 223 0 194 0;
#X connect 223 0 195 0;
#X connect 224 0 271 0;
#X connect 225 0 267 0;
#X connect 226 0 262 0;
#X connect 227 0 244 0;
#X connect 228 0 249 0;
#X connect 229 0 254 0;
#X connect 230 0 231 0;
#X connect 231 0 236 0;
#X connect 231 1 232 2;
#X connect 231 2 232 3;
#X connect 232 0 233 0;
#X connect 232 0 234 0;
#X connect 236 0 155 1;
#X connect 236 1 232 1;
#X connect 237 0 278 0;
#X connect 237 1 56 0;
#X connect 238 0 279 0;
#X connect 238 1 19 0;
#X connect 239 0 91 0;
#X connect 239 1 92 0;
#X connect 240 0 129 0;
#X connect 240 1 130 0;
#X connect 241 0 159 0;
#X connect 241 1 160 0;
#X connect 242 0 194 0;
#X connect 242 1 195 0;
#X connect 243 0 245 0;
#X connect 244 0 245 0;
#X connect 245 0 257 0;
#X connect 246 0 260 0;
#X connect 247 0 243 0;
#X connect 248 0 250 0;
#X connect 249 0 250 0;
#X connect 250 0 246 1;
#X connect 251 0 248 0;
#X connect 252 0 369 0;
#X connect 253 0 255 0;
#X connect 254 0 255 0;
#X connect 255 0 260 1;
#X connect 256 0 253 0;
#X connect 257 0 246 0;
#X connect 258 0 259 0;
#X connect 259 0 246 0;
#X connect 260 0 265 0;
#X connect 261 0 263 0;
#X connect 262 0 263 0;
#X connect 263 0 265 1;
#X connect 264 0 261 0;
#X connect 265 0 274 0;
#X connect 266 0 268 0;
#X connect 267 0 268 0;
#X connect 268 0 274 1;
#X connect 269 0 266 0;
#X connect 270 0 272 0;
#X connect 271 0 272 0;
#X connect 272 0 275 1;
#X connect 273 0 270 0;
#X connect 274 0 275 0;
#X connect 275 0 345 0;
#X connect 276 0 299 0;
#X connect 276 0 286 0;
#X connect 277 0 17 0;
#X connect 278 0 64 0;
#X connect 278 1 117 0;
#X connect 279 0 42 0;
#X connect 279 1 46 0;
#X connect 280 0 20 0;
#X connect 281 0 57 0;
#X connect 282 0 93 0;
#X connect 283 0 131 0;
#X connect 284 0 161 0;
#X connect 285 0 196 0;
#X connect 286 0 277 0;
#X connect 287 0 288 0;
#X connect 288 0 19 0;
#X connect 289 0 290 0;
#X connect 290 0 56 0;
#X connect 291 0 292 0;
#X connect 292 0 92 0;
#X connect 293 0 294 0;
#X connect 294 0 130 0;
#X connect 295 0 296 0;
#X connect 296 0 160 0;
#X connect 297 0 298 0;
#X connect 298 0 195 0;
#X connect 299 0 17 0;
#X connect 300 0 325 0;
#X connect 301 0 329 0;
#X connect 302 0 304 1;
#X connect 303 0 305 0;
#X connect 304 0 306 0;
#X connect 305 0 304 0;
#X connect 306 0 334 0;
#X connect 307 0 324 0;
#X connect 308 0 310 0;
#X connect 308 1 309 0;
#X connect 308 2 309 1;
#X connect 308 3 309 2;
#X connect 309 0 332 0;
#X connect 310 0 309 0;
#X connect 310 0 302 0;
#X connect 310 1 302 0;
#X connect 312 0 313 0;
#X connect 316 0 366 0;
#X connect 316 1 366 1;
#X connect 316 2 366 2;
#X connect 316 3 366 3;
#X connect 316 4 366 4;
#X connect 316 5 366 5;
#X connect 316 6 366 6;
#X connect 316 7 366 7;
#X connect 324 0 325 0;
#X connect 324 1 300 0;
#X connect 325 0 308 0;
#X connect 325 1 331 0;
#X connect 326 0 301 0;
#X connect 327 0 328 0;
#X connect 328 0 300 0;
#X connect 329 0 300 0;
#X connect 329 0 325 0;
#X connect 330 0 325 0;
#X connect 333 0 311 0;
#X connect 335 0 314 0;
#X connect 336 0 338 0;
#X connect 337 0 338 0;
#X connect 338 0 345 1;
#X connect 339 0 336 0;
#X connect 340 0 337 0;
#X connect 341 0 342 0;
#X connect 342 0 343 0;
#X connect 343 0 344 0;
#X connect 345 0 341 0;
#X connect 346 0 316 0;
#X connect 348 0 349 0;
#X connect 348 1 352 0;
#X connect 349 0 355 0;
#X connect 350 0 348 0;
#X connect 351 0 360 0;
#X connect 352 0 355 1;
#X connect 357 0 364 0;
#X connect 357 1 364 1;
#X connect 357 2 364 2;
#X connect 357 3 364 3;
#X connect 357 4 364 4;
#X connect 358 0 359 4;
#X connect 360 0 350 0;
#X connect 361 0 71 0;
#X connect 361 1 73 0;
#X connect 361 2 74 0;
#X connect 361 3 75 0;
#X connect 361 4 76 0;
#X connect 361 5 77 0;
#X connect 361 6 78 0;
#X connect 361 7 79 0;
#X connect 362 0 82 0;
#X connect 362 1 84 0;
#X connect 362 2 85 0;
#X connect 362 3 86 0;
#X connect 362 4 87 0;
#X connect 362 5 88 0;
#X connect 362 6 89 0;
#X connect 362 7 90 0;
#X connect 363 0 107 0;
#X connect 363 1 108 0;
#X connect 363 2 109 0;
#X connect 363 3 110 0;
#X connect 364 0 145 0;
#X connect 364 1 146 0;
#X connect 364 2 147 0;
#X connect 364 3 148 0;
#X connect 364 4 358 0;
#X connect 365 0 175 0;
#X connect 365 1 177 0;
#X connect 365 2 178 0;
#X connect 365 3 179 0;
#X connect 365 4 180 0;
#X connect 365 5 181 0;
#X connect 365 6 182 0;
#X connect 365 7 183 0;
#X connect 366 0 315 0;
#X connect 366 1 317 0;
#X connect 366 2 318 0;
#X connect 366 3 319 0;
#X connect 366 4 320 0;
#X connect 366 5 321 0;
#X connect 366 6 322 0;
#X connect 366 7 323 0;
#X connect 367 0 210 0;
#X connect 367 1 211 0;
#X connect 367 2 212 0;
#X connect 367 3 213 0;
#X connect 369 0 5 0;
