#N canvas 104 40 3708 1970 12;
#X obj 101 168 ctlin;
#X obj 101 201 pack f f;
#X msg 101 232 \$2 \$1;
#X obj 102 260 s midi;
#X obj 580 275 realtime;
#X obj 499 171 bng 40 250 50 0 empty empty START 0 -10 0 12 #ffffff #00ff04 #000000;
#X obj 399 144 r rt;
#X obj 399 173 / 1000;
#X obj 399 205 mod 60;
#X obj 399 230 i;
#X floatatom 396 260 5 0 0 3 sec - - 36;
#X obj 276 207 mod 60;
#X obj 276 232 i;
#X floatatom 276 260 5 0 0 3 min - - 36;
#X obj 276 180 / 60;
#X obj 580 308 s rt;
#X obj 611 227 metro 1;
#X obj 608 176 tgl 40 0 empty empty RUN 0 -10 0 12 #fcfcfc #000000 #000000 0 1;
#X obj 522 243 s start;
#X msg 215 660 rewind;
#X obj 196 502 bng 30 250 50 0 empty empty LOAD\ RECORDING 0 -10 0 12 #fcfcfc #0400ff #000000;
#X floatatom 186 891 7 0 0 0 - - - 0;
#X obj 129 898 r rt;
#X obj 175 953 >=;
#X floatatom 129 923 12 0 0 0 - - - 0;
#X obj 175 987 select 1;
#X obj 215 598 r start;
#X obj 1329 305 netsend;
#X text 1390 304 $ pdreceive 3000 > data.log;
#X msg 1581 152 disconnect;
#X msg 1396 152 connect localhost 3000;
#X obj 797 201 vsl 20 170 0 127 0 0 empty empty empty 0 -9 0 12 #fcfcfc #000000 #000000 0 1;
#X text 912 118 RECORD;
#X obj 797 123 r midi;
#X obj 797 153 route 0 1 2 3 4 5 6 7, f 62;
#X obj 851 200 vsl 20 170 0 127 0 0 empty empty empty 0 -9 0 12 #fcfcfc #000000 #000000 0 1;
#X obj 905 200 vsl 20 170 0 127 0 0 empty empty empty 0 -9 0 12 #fcfcfc #000000 #000000 0 1;
#X obj 959 199 vsl 20 170 0 127 0 0 empty empty empty 0 -9 0 12 #fcfcfc #000000 #000000 0 1;
#X obj 1013 198 vsl 20 170 0 127 0 0 empty empty empty 0 -9 0 12 #fcfcfc #000000 #000000 0 1;
#X obj 1067 197 vsl 20 170 0 127 0 0 empty empty empty 0 -9 0 12 #fcfcfc #000000 #000000 0 1;
#X obj 1121 197 vsl 20 170 0 127 0 0 empty empty empty 0 -9 0 12 #fcfcfc #000000 #000000 0 1;
#X obj 1176 196 vsl 20 170 0 127 0 0 empty empty empty 0 -9 0 12 #fcfcfc #000000 #000000 0 1;
#X obj 196 769 unpack f f f f, f 19;
#X msg 196 570 read dimmer.log;
#X obj 239 835 pack f f f, f 13;
#X obj 186 804 t b f;
#X obj 249 730 s dimmer_eof;
#X obj 277 659 r dimmer_nextline;
#X obj 175 1015 s dimmer_nextline;
#X obj 239 863 s dimmer_ctl;
#X obj 254 898 r dimmer_eof;
#X obj 254 923 bng 20 250 50 0 empty empty empty 0 -10 0 12 #fcfcfc #000000 #000000;
#X obj 347 898 r start;
#X obj 347 923 bng 20 250 50 0 empty empty empty 0 -10 0 12 #fcfcfc #000000 #000000;
#X obj 255 951 r dimmer_nextline;
#X obj 255 976 bng 20 250 50 0 empty empty empty 0 -10 0 12 #fcfcfc #000000 #000000;
#X msg 648 665 rewind;
#X obj 629 507 bng 30 250 50 0 empty empty LOAD\ RECORDING 0 -10 0 12 #fcfcfc #0400ff #000000;
#X floatatom 619 896 7 0 0 0 - - - 0;
#X obj 562 903 r rt;
#X obj 608 958 >=;
#X floatatom 562 928 12 0 0 0 - - - 0;
#X obj 608 992 select 1;
#X obj 648 611 r start;
#X obj 629 774 unpack f f f f, f 19;
#X obj 672 840 pack f f f, f 13;
#X obj 619 809 t b f;
#X obj 687 926 bng 20 250 50 0 empty empty empty 0 -10 0 12 #fcfcfc #000000 #000000;
#X obj 793 901 r start;
#X obj 793 926 bng 20 250 50 0 empty empty empty 0 -10 0 12 #fcfcfc #000000 #000000;
#X obj 688 979 bng 20 250 50 0 empty empty empty 0 -10 0 12 #fcfcfc #000000 #000000;
#X obj 92 1161 vsl 20 170 0 127 0 0 empty empty empty 0 -9 0 12 #fcfcfc #000000 #000000 0 1;
#X obj 92 1113 route 0 1 2 3 4 5 6 7, f 62;
#X obj 146 1160 vsl 20 170 0 127 0 0 empty empty empty 0 -9 0 12 #fcfcfc #000000 #000000 0 1;
#X obj 200 1160 vsl 20 170 0 127 0 0 empty empty empty 0 -9 0 12 #fcfcfc #000000 #000000 0 1;
#X obj 254 1159 vsl 20 170 0 127 0 0 empty empty empty 0 -9 0 12 #fcfcfc #000000 #000000 0 1;
#X obj 308 1158 vsl 20 170 0 127 0 0 empty empty empty 0 -9 0 12 #fcfcfc #000000 #000000 0 1;
#X obj 362 1157 vsl 20 170 0 127 0 0 empty empty empty 0 -9 0 12 #fcfcfc #000000 #000000 0 1;
#X obj 416 1157 vsl 20 170 0 127 0 0 empty empty empty 0 -9 0 12 #fcfcfc #000000 #000000 0 1;
#X obj 471 1156 vsl 20 170 0 127 0 0 empty empty empty 0 -9 0 12 #fcfcfc #000000 #000000 0 1;
#X obj 92 1083 r dimmer_ctl;
#X text 207 1083 DIMMER;
#X obj 579 1160 vsl 20 170 0 127 0 0 empty empty empty 0 -9 0 12 #fcfcfc #000000 #000000 0 1;
#X obj 579 1112 route 0 1 2 3 4 5 6 7, f 62;
#X obj 633 1159 vsl 20 170 0 127 0 0 empty empty empty 0 -9 0 12 #fcfcfc #000000 #000000 0 1;
#X obj 687 1159 vsl 20 170 0 127 0 0 empty empty empty 0 -9 0 12 #fcfcfc #000000 #000000 0 1;
#X obj 741 1158 vsl 20 170 0 127 0 0 empty empty empty 0 -9 0 12 #fcfcfc #000000 #000000 0 1;
#X obj 795 1157 vsl 20 170 0 127 0 0 empty empty empty 0 -9 0 12 #fcfcfc #000000 #000000 0 1;
#X obj 849 1156 vsl 20 170 0 127 0 0 empty empty empty 0 -9 0 12 #fcfcfc #000000 #000000 0 1;
#X obj 903 1156 vsl 20 170 0 127 0 0 empty empty empty 0 -9 0 12 #fcfcfc #000000 #000000 0 1;
#X obj 958 1155 vsl 20 170 0 127 0 0 empty empty empty 0 -9 0 12 #fcfcfc #000000 #000000 0 1;
#X obj 1109 701 textfile;
#X msg 1128 665 rewind;
#X obj 1109 507 bng 30 250 50 0 empty empty LOAD\ RECORDING 0 -10 0 12 #fcfcfc #0400ff #000000;
#X floatatom 1099 896 8 0 0 0 - - - 0;
#X obj 1042 903 r rt;
#X obj 1088 958 >=;
#X floatatom 1042 928 12 0 0 0 - - - 0;
#X obj 1088 992 select 1;
#X obj 1124 604 r start;
#X obj 1109 774 unpack f f f f, f 19;
#X obj 1152 840 pack f f f, f 13;
#X obj 1099 809 t b f;
#X obj 1175 926 bng 20 250 50 0 empty empty empty 0 -10 0 12 #fcfcfc #000000 #000000;
#X obj 1282 901 r start;
#X obj 1282 926 bng 20 250 50 0 empty empty empty 0 -10 0 12 #fcfcfc #000000 #000000;
#X obj 1176 979 bng 20 250 50 0 empty empty empty 0 -10 0 12 #fcfcfc #000000 #000000;
#X obj 1059 1160 vsl 20 170 0 127 0 0 empty empty empty 0 -9 0 12 #fcfcfc #000000 #000000 0 1;
#X obj 1113 1159 vsl 20 170 0 127 0 0 empty empty empty 0 -9 0 12 #fcfcfc #000000 #000000 0 1;
#X obj 1167 1159 vsl 20 170 0 127 0 0 empty empty empty 0 -9 0 12 #fcfcfc #000000 #000000 0 1;
#X obj 1221 1158 vsl 20 170 0 127 0 0 empty empty empty 0 -9 0 12 #fcfcfc #000000 #000000 0 1;
#X obj 608 1020 s ceiling1_nextline;
#X obj 579 1082 r ceiling1_ctl;
#X obj 672 868 s ceiling1_ctl;
#X obj 688 954 r ceiling1_nextline;
#X obj 687 901 r ceiling1_eof;
#X obj 710 664 r ceiling1_nextline;
#X obj 682 735 s ceiling1_eof;
#X msg 629 575 read ceiling1.log;
#X msg 1109 575 read ceiling2.log;
#X obj 1190 664 r ceiling2_nextline;
#X obj 1162 735 s ceiling2_eof;
#X obj 1175 901 r ceiling2_eof;
#X obj 1176 954 r ceiling2_nextline;
#X obj 1152 868 s ceiling2_ctl;
#X obj 1088 1020 s ceiling2_nextline;
#X obj 1059 1082 r ceiling2_ctl;
#X text 694 1082 CRITICAL CARE UNIT;
#X text 1174 1082 COMTROL ROOM;
#X obj 1059 1112 route 0 1 2 3, f 31;
#X obj 1414 697 textfile;
#X msg 1433 661 rewind;
#X obj 1414 503 bng 30 250 50 0 empty empty LOAD\ RECORDING 0 -10 0 12 #fcfcfc #0400ff #000000;
#X floatatom 1404 892 7 0 0 0 - - - 0;
#X obj 1347 899 r rt;
#X obj 1393 954 >=;
#X floatatom 1347 924 12 0 0 0 - - - 0;
#X obj 1393 988 select 1;
#X obj 1433 599 r start;
#X obj 1414 770 unpack f f f f, f 19;
#X obj 1457 836 pack f f f, f 13;
#X obj 1404 805 t b f;
#X obj 1465 924 bng 20 250 50 0 empty empty empty 0 -10 0 12 #fcfcfc #000000 #000000;
#X obj 1554 899 r start;
#X obj 1554 924 bng 20 250 50 0 empty empty empty 0 -10 0 12 #fcfcfc #000000 #000000;
#X obj 1466 977 bng 20 250 50 0 empty empty empty 0 -10 0 12 #fcfcfc #000000 #000000;
#X obj 1364 1156 vsl 20 170 0 127 0 0 empty empty empty 0 -9 0 12 #fcfcfc #000000 #000000 0 1;
#X obj 1418 1155 vsl 20 170 0 127 0 0 empty empty empty 0 -9 0 12 #fcfcfc #000000 #000000 0 1;
#X obj 1472 1155 vsl 20 170 0 127 0 0 empty empty empty 0 -9 0 12 #fcfcfc #000000 #000000 0 1;
#X obj 1526 1154 vsl 20 170 0 127 0 0 empty empty empty 0 -9 0 12 #fcfcfc #000000 #000000 0 1;
#X obj 1364 1108 route 0 1 2 3, f 31;
#X obj 1457 864 s pumps_ctl;
#X obj 1466 952 r pumps_nextline;
#X obj 1393 1016 s pumps_nextline;
#X obj 1364 1078 r pumps_ctl;
#X obj 1467 731 s pumps_eof;
#X obj 1465 899 r pumps_eof;
#X obj 647 275 realtime;
#X obj 1329 152 r rtmidi;
#X msg 1414 571 read pumps.log;
#X obj 1495 660 r pumps_nextline;
#X obj 1706 696 textfile;
#X msg 1725 660 rewind;
#X obj 1706 502 bng 30 250 50 0 empty empty LOAD\ RECORDING 0 -10 0 12 #fcfcfc #0400ff #000000;
#X floatatom 1696 891 8 0 0 0 - - - 0;
#X obj 1639 898 r rt;
#X obj 1685 953 >=;
#X floatatom 1639 923 12 0 0 0 - - - 0;
#X obj 1685 987 select 1;
#X obj 1725 598 r start;
#X obj 1706 769 unpack f f f f, f 19;
#X obj 1749 835 pack f f f, f 13;
#X obj 1696 804 t b f;
#X obj 1764 917 bng 20 250 50 0 empty empty empty 0 -10 0 12 #fcfcfc #000000 #000000;
#X obj 1848 892 r start;
#X obj 1848 917 bng 20 250 50 0 empty empty empty 0 -10 0 12 #fcfcfc #000000 #000000;
#X obj 1765 970 bng 20 250 50 0 empty empty empty 0 -10 0 12 #fcfcfc #000000 #000000;
#X obj 1656 1155 vsl 20 170 0 127 0 0 empty empty empty 0 -9 0 12 #fcfcfc #000000 #000000 0 1;
#X obj 1656 1107 route 0 1 2 3 4 5 6 7, f 62;
#X obj 1710 1154 vsl 20 170 0 127 0 0 empty empty empty 0 -9 0 12 #fcfcfc #000000 #000000 0 1;
#X obj 1764 1154 vsl 20 170 0 127 0 0 empty empty empty 0 -9 0 12 #fcfcfc #000000 #000000 0 1;
#X obj 1818 1153 vsl 20 170 0 127 0 0 empty empty empty 0 -9 0 12 #fcfcfc #000000 #000000 0 1;
#X obj 1872 1152 vsl 20 170 0 127 0 0 empty empty empty 0 -9 0 12 #fcfcfc #000000 #000000 0 1;
#X obj 1926 1151 vsl 20 170 0 127 0 0 empty empty empty 0 -9 0 12 #fcfcfc #000000 #000000 0 1;
#X obj 1980 1151 vsl 20 170 0 127 0 0 empty empty empty 0 -9 0 12 #fcfcfc #000000 #000000 0 1;
#X obj 2035 1150 vsl 20 170 0 127 0 0 empty empty empty 0 -9 0 12 #fcfcfc #000000 #000000 0 1;
#X msg 1706 570 read bars.log;
#X obj 1787 659 r bars_nextline;
#X obj 1759 730 s bars_eof;
#X obj 1764 892 r bars_eof;
#X obj 1765 945 r bars_nextline;
#X obj 1749 863 s bars_ctl;
#X obj 1685 1015 s bars_nextline;
#X obj 1656 1077 r bars_ctl;
#X text 1479 1078 DIALYSIS;
#X text 1771 1077 LEVEL BARS;
#X obj 2172 694 textfile;
#X msg 2191 658 rewind;
#X obj 2172 500 bng 30 250 50 0 empty empty LOAD\ RECORDING 0 -10 0 12 #fcfcfc #0400ff #000000;
#X floatatom 2162 889 7 0 0 0 - - - 0;
#X obj 2105 896 r rt;
#X obj 2151 951 >=;
#X floatatom 2105 921 12 0 0 0 - - - 0;
#X obj 2151 985 select 1;
#X obj 2191 596 r start;
#X obj 2172 767 unpack f f f f, f 19;
#X obj 2215 833 pack f f f, f 13;
#X obj 2162 802 t b f;
#X obj 2223 921 bng 20 250 50 0 empty empty empty 0 -10 0 12 #fcfcfc #000000 #000000;
#X obj 2312 896 r start;
#X obj 2312 921 bng 20 250 50 0 empty empty empty 0 -10 0 12 #fcfcfc #000000 #000000;
#X obj 2224 974 bng 20 250 50 0 empty empty empty 0 -10 0 12 #fcfcfc #000000 #000000;
#X obj 2122 1153 vsl 20 170 0 127 0 0 empty empty empty 0 -9 0 12 #fcfcfc #000000 #000000 0 1;
#X obj 2176 1152 vsl 20 170 0 127 0 0 empty empty empty 0 -9 0 12 #fcfcfc #000000 #000000 0 1;
#X obj 2230 1152 vsl 20 170 0 127 0 0 empty empty empty 0 -9 0 12 #fcfcfc #000000 #000000 0 1;
#X obj 2284 1151 vsl 20 170 0 127 0 0 empty empty empty 0 -9 0 12 #fcfcfc #000000 #000000 0 1;
#X obj 2122 1105 route 0 1 2 3, f 31;
#X obj 2151 1013 s lungs_nextline;
#X obj 2122 1075 r lungs_ctl;
#X text 2237 1075 RESPIRATOR;
#X obj 2224 949 r lungs_nextline;
#X obj 2223 896 r lungs_eof;
#X obj 2215 861 s lungs_ctl;
#X obj 2225 728 s lungs_eof;
#X obj 2253 657 r lungs_nextline;
#X msg 2172 568 read lungs.log;
#X obj 2235 80 r lungs_eof;
#X obj 2137 81 r bars_eof;
#X obj 2041 82 r pumps_eof;
#X obj 1726 83 r dimmer_eof;
#X obj 1822 83 r ceiling1_eof;
#X obj 1932 82 r ceiling2_eof;
#X obj 682 167 r midi;
#X obj 682 208 unpack f f f;
#X obj 668 349 pack f f f f;
#X obj 675 381 s rtmidi;
#X obj 645 385 bng 20 250 50 0 empty empty empty 0 -10 0 12 #fcfcfc #000000 #000000;
#X obj 647 300 bng 20 250 50 0 empty empty empty 0 -10 0 12 #fcfcfc #000000 #000000;
#X obj 680 238 t b f;
#X obj 636 633 t b b;
#X obj 205 628 t b b;
#X obj 1117 633 t b b;
#X obj 1422 629 t b b;
#X obj 1713 628 t b b;
#X obj 2179 626 t b b;
#X msg 1764 152 0;
#X msg 1726 123 1;
#X obj 1727 183 tgl 20 0 empty empty empty 0 -10 0 12 #fcfcfc #000000 #000000 0 1;
#X obj 1727 244 &&;
#X obj 1763 119 r start;
#X msg 1860 146 0;
#X msg 1822 117 1;
#X obj 1823 177 tgl 20 0 empty empty empty 0 -10 0 12 #fcfcfc #000000 #000000 0 1;
#X obj 1859 113 r start;
#X obj 499 119 r all_end;
#X msg 1970 143 0;
#X msg 1932 114 1;
#X obj 1933 174 tgl 20 0 empty empty empty 0 -10 0 12 #fcfcfc #000000 #000000 0 1;
#X obj 1969 110 r start;
#X obj 1727 208 t f;
#X obj 1675 182 r rt;
#X obj 1675 207 t b f;
#X obj 1779 279 &&;
#X msg 2079 139 0;
#X msg 2041 110 1;
#X obj 2042 170 tgl 20 0 empty empty empty 0 -10 0 12 #fcfcfc #000000 #000000 0 1;
#X obj 2078 106 r start;
#X obj 1840 312 &&;
#X msg 2175 138 0;
#X msg 2137 109 1;
#X obj 2138 169 tgl 20 0 empty empty empty 0 -10 0 12 #fcfcfc #000000 #000000 0 1;
#X obj 2174 105 r start;
#X msg 2273 133 0;
#X msg 2235 104 1;
#X obj 2236 164 tgl 20 0 empty empty empty 0 -10 0 12 #fcfcfc #000000 #000000 0 1;
#X obj 2272 100 r start;
#X obj 1903 344 &&;
#X obj 1964 377 &&;
#X obj 604 77 loadbang;
#X msg 638 137 1;
#X obj 629 701 textfile;
#X obj 196 696 textfile;
#X obj 196 459 loadbang;
#X obj 629 455 loadbang;
#X obj 1109 446 loadbang;
#X obj 1414 438 loadbang;
#X obj 1706 442 loadbang;
#X obj 2172 435 loadbang;
#X obj 638 111 delay 2000;
#X obj 324 570 loadbang;
#X obj 324 595 delay 1000;
#X obj 764 573 loadbang;
#X obj 764 598 delay 1000;
#X obj 1248 572 loadbang;
#X obj 1248 597 delay 1000;
#X obj 1531 571 loadbang;
#X obj 1531 596 delay 1000;
#X obj 1822 571 loadbang;
#X obj 1822 596 delay 1000;
#X obj 2285 566 loadbang;
#X obj 2285 591 delay 1000;
#X msg 600 123 0;
#X msg 2509 660 rewind;
#X obj 2490 502 bng 30 250 50 0 empty empty LOAD\ RECORDING 0 -10 0 12 #fcfcfc #0400ff #000000;
#X floatatom 2480 891 7 0 0 0 - - - 0;
#X obj 2423 898 r rt;
#X obj 2469 953 >=;
#X floatatom 2423 923 12 0 0 0 - - - 0;
#X obj 2469 987 select 1;
#X obj 2509 606 r start;
#X obj 2490 769 unpack f f f f, f 19;
#X obj 2533 835 pack f f f, f 13;
#X obj 2480 804 t b f;
#X obj 2548 921 bng 20 250 50 0 empty empty empty 0 -10 0 12 #fcfcfc #000000 #000000;
#X obj 2654 896 r start;
#X obj 2654 921 bng 20 250 50 0 empty empty empty 0 -10 0 12 #fcfcfc #000000 #000000;
#X obj 2549 974 bng 20 250 50 0 empty empty empty 0 -10 0 12 #fcfcfc #000000 #000000;
#X obj 2440 1155 vsl 20 170 0 127 0 0 empty empty empty 0 -9 0 12 #fcfcfc #000000 #000000 0 1;
#X obj 2440 1107 route 0 1 2 3 4 5 6 7, f 62;
#X obj 2494 1154 vsl 20 170 0 127 0 0 empty empty empty 0 -9 0 12 #fcfcfc #000000 #000000 0 1;
#X obj 2548 1154 vsl 20 170 0 127 0 0 empty empty empty 0 -9 0 12 #fcfcfc #000000 #000000 0 1;
#X obj 2602 1153 vsl 20 170 0 127 0 0 empty empty empty 0 -9 0 12 #fcfcfc #000000 #000000 0 1;
#X obj 2656 1152 vsl 20 170 0 127 0 0 empty empty empty 0 -9 0 12 #fcfcfc #000000 #000000 0 1;
#X obj 2710 1151 vsl 20 170 0 127 0 0 empty empty empty 0 -9 0 12 #fcfcfc #000000 #000000 0 1;
#X obj 2764 1151 vsl 20 170 0 127 0 0 empty empty empty 0 -9 0 12 #fcfcfc #000000 #000000 0 1;
#X obj 2819 1150 vsl 20 170 0 127 0 0 empty empty empty 0 -9 0 12 #fcfcfc #000000 #000000 0 1;
#X obj 2497 628 t b b;
#X obj 2490 696 textfile;
#X obj 2490 450 loadbang;
#X obj 2625 568 loadbang;
#X obj 2625 593 delay 1000;
#X msg 2490 570 read mixer1.log;
#X obj 2571 659 r mixer1_nextline;
#X obj 2543 730 s mixer1_eof;
#X obj 2533 863 s mixer1_ctl;
#X obj 2548 896 r mixer1_eof;
#X obj 2469 1015 s mixer1_nextline;
#X obj 2552 952 r mixer1_nextline;
#X msg 2379 130 0;
#X msg 2341 101 1;
#X obj 2342 161 tgl 20 0 empty empty empty 0 -10 0 12 #fcfcfc #000000 #000000 0 1;
#X obj 2378 97 r start;
#X obj 2341 77 r mixer1_eof;
#X obj 2027 442 tgl 20 0 empty empty empty 0 -10 0 12 #fcfcfc #000000 #000000 0 1;
#X obj 2027 467 change;
#X obj 2027 492 bng 20 250 50 0 empty empty empty 0 -10 0 12 #fcfcfc #000000 #000000;
#X obj 2027 517 s all_end;
#X obj 2027 409 &&;
#X obj 2440 1077 r mixer1_ctl;
#X text 2555 1077 MIXER 1-8;
#N canvas 2914 198 732 1049 hbeat 1;
#X obj 254 243 bng 20 250 50 0 empty empty empty 0 -10 0 12 #fcfcfc #000000 #000000;
#X obj 244 100 tgl 20 0 empty empty empty 0 -10 0 12 #fcfcfc #000000 #000000 0 1;
#X obj 164 258 snapshot~;
#X msg 182 137 pd \; dsp \$1;
#X obj 223 304 vsl 20 170 -1 1 0 0 empty empty empty 0 -9 0 12 #fcfcfc #000000 #000000 0 1;
#X obj 158 323 > 0;
#X obj 158 348 select 1;
#X obj 158 373 bng 20 250 50 0 empty empty empty 0 -10 0 12 #fcfcfc #000000 #000000;
#X obj 34 266 snapshot~;
#X obj 55 301 vsl 20 170 -1 1 0 0 empty empty empty 0 -9 0 12 #fcfcfc #000000 #000000 0 1;
#X obj 91 323 > 0;
#X obj 91 348 select 1;
#X obj 91 373 bng 20 250 50 0 empty empty empty 0 -10 0 12 #fcfcfc #000000 #000000;
#X msg 245 66 1;
#X obj 246 35 loadbang;
#X obj 33 188 osc~ 3;
#X obj 166 184 osc~ 7;
#X obj 91 398 outlet;
#X obj 158 398 outlet;
#X obj 246 173 metro 600;
#X obj 291 99 inlet;
#X floatatom 291 124 5 0 0 0 - - - 0;
#X connect 1 0 3 0;
#X connect 1 0 19 0;
#X connect 2 0 4 0;
#X connect 2 0 5 0;
#X connect 2 0 10 1;
#X connect 5 0 6 0;
#X connect 6 0 7 0;
#X connect 7 0 18 0;
#X connect 8 0 9 0;
#X connect 8 0 10 0;
#X connect 10 0 11 0;
#X connect 11 0 12 0;
#X connect 12 0 17 0;
#X connect 13 0 1 0;
#X connect 14 0 13 0;
#X connect 15 0 8 0;
#X connect 16 0 2 0;
#X connect 19 0 0 0;
#X connect 19 0 2 0;
#X connect 19 0 8 0;
#X connect 20 0 19 0;
#X connect 20 0 21 0;
#X restore 2554 258 pd hbeat;
#X f 10;
#X obj 2554 297 bng 30 250 50 0 empty empty empty 0 -10 0 12 #ffffff #990400 #000000;
#X obj 2554 157 vsl 40 80 200 600 0 0 empty empty empty 0 -9 0 12 #fcfcfc #000000 #000000 0 1;
#X msg 2554 123 600;
#X obj 2554 93 loadbang;
#X obj 2621 297 bng 30 250 50 0 empty empty empty 0 -10 0 12 #ffffff #990400 #000000;
#X connect 0 0 1 0;
#X connect 0 1 1 1;
#X connect 1 0 2 0;
#X connect 2 0 3 0;
#X connect 4 0 15 0;
#X connect 5 0 4 0;
#X connect 5 0 4 1;
#X connect 5 0 18 0;
#X connect 5 0 157 0;
#X connect 5 0 157 1;
#X connect 6 0 7 0;
#X connect 7 0 8 0;
#X connect 7 0 14 0;
#X connect 8 0 9 0;
#X connect 9 0 10 0;
#X connect 11 0 12 0;
#X connect 12 0 13 0;
#X connect 14 0 11 0;
#X connect 16 0 4 1;
#X connect 17 0 16 0;
#X connect 17 0 5 0;
#X connect 19 0 281 0;
#X connect 20 0 43 0;
#X connect 21 0 23 1;
#X connect 22 0 24 0;
#X connect 23 0 25 0;
#X connect 24 0 23 0;
#X connect 25 0 48 0;
#X connect 26 0 240 0;
#X connect 29 0 27 0;
#X connect 30 0 27 0;
#X connect 33 0 34 0;
#X connect 34 0 31 0;
#X connect 34 1 35 0;
#X connect 34 2 36 0;
#X connect 34 3 37 0;
#X connect 34 4 38 0;
#X connect 34 5 39 0;
#X connect 34 6 40 0;
#X connect 34 7 41 0;
#X connect 42 0 45 0;
#X connect 42 1 44 0;
#X connect 42 2 44 1;
#X connect 42 3 44 2;
#X connect 43 0 19 0;
#X connect 43 0 281 0;
#X connect 44 0 49 0;
#X connect 45 0 44 0;
#X connect 45 0 21 0;
#X connect 45 1 21 0;
#X connect 47 0 281 0;
#X connect 50 0 51 0;
#X connect 52 0 53 0;
#X connect 54 0 55 0;
#X connect 56 0 280 0;
#X connect 57 0 118 0;
#X connect 58 0 60 1;
#X connect 59 0 61 0;
#X connect 60 0 62 0;
#X connect 61 0 60 0;
#X connect 62 0 111 0;
#X connect 63 0 239 0;
#X connect 64 0 66 0;
#X connect 64 1 65 0;
#X connect 64 2 65 1;
#X connect 64 3 65 2;
#X connect 65 0 113 0;
#X connect 66 0 65 0;
#X connect 66 0 58 0;
#X connect 66 1 58 0;
#X connect 68 0 69 0;
#X connect 72 0 71 0;
#X connect 72 1 73 0;
#X connect 72 2 74 0;
#X connect 72 3 75 0;
#X connect 72 4 76 0;
#X connect 72 5 77 0;
#X connect 72 6 78 0;
#X connect 72 7 79 0;
#X connect 80 0 72 0;
#X connect 83 0 82 0;
#X connect 83 1 84 0;
#X connect 83 2 85 0;
#X connect 83 3 86 0;
#X connect 83 4 87 0;
#X connect 83 5 88 0;
#X connect 83 6 89 0;
#X connect 83 7 90 0;
#X connect 91 0 100 0;
#X connect 91 1 121 0;
#X connect 92 0 91 0;
#X connect 93 0 119 0;
#X connect 94 0 96 1;
#X connect 95 0 97 0;
#X connect 96 0 98 0;
#X connect 97 0 96 0;
#X connect 98 0 125 0;
#X connect 99 0 241 0;
#X connect 100 0 102 0;
#X connect 100 1 101 0;
#X connect 100 2 101 1;
#X connect 100 3 101 2;
#X connect 101 0 124 0;
#X connect 102 0 101 0;
#X connect 102 0 94 0;
#X connect 102 1 94 0;
#X connect 104 0 105 0;
#X connect 112 0 83 0;
#X connect 114 0 70 0;
#X connect 115 0 67 0;
#X connect 116 0 280 0;
#X connect 118 0 56 0;
#X connect 118 0 280 0;
#X connect 119 0 91 0;
#X connect 119 0 92 0;
#X connect 120 0 91 0;
#X connect 122 0 103 0;
#X connect 123 0 106 0;
#X connect 126 0 129 0;
#X connect 129 0 107 0;
#X connect 129 1 108 0;
#X connect 129 2 109 0;
#X connect 129 3 110 0;
#X connect 130 0 139 0;
#X connect 130 1 155 0;
#X connect 131 0 130 0;
#X connect 132 0 159 0;
#X connect 133 0 135 1;
#X connect 134 0 136 0;
#X connect 135 0 137 0;
#X connect 136 0 135 0;
#X connect 137 0 153 0;
#X connect 138 0 242 0;
#X connect 139 0 141 0;
#X connect 139 1 140 0;
#X connect 139 2 140 1;
#X connect 139 3 140 2;
#X connect 140 0 151 0;
#X connect 141 0 140 0;
#X connect 141 0 133 0;
#X connect 141 1 133 0;
#X connect 143 0 144 0;
#X connect 150 0 146 0;
#X connect 150 1 147 0;
#X connect 150 2 148 0;
#X connect 150 3 149 0;
#X connect 152 0 145 0;
#X connect 154 0 150 0;
#X connect 156 0 142 0;
#X connect 157 0 234 0;
#X connect 157 0 237 0;
#X connect 158 0 27 0;
#X connect 159 0 130 0;
#X connect 159 0 131 0;
#X connect 160 0 130 0;
#X connect 161 0 170 0;
#X connect 161 1 188 0;
#X connect 162 0 161 0;
#X connect 163 0 186 0;
#X connect 164 0 166 1;
#X connect 165 0 167 0;
#X connect 166 0 168 0;
#X connect 167 0 166 0;
#X connect 168 0 192 0;
#X connect 169 0 243 0;
#X connect 170 0 172 0;
#X connect 170 1 171 0;
#X connect 170 2 171 1;
#X connect 170 3 171 2;
#X connect 171 0 191 0;
#X connect 172 0 171 0;
#X connect 172 0 164 0;
#X connect 172 1 164 0;
#X connect 174 0 175 0;
#X connect 178 0 177 0;
#X connect 178 1 179 0;
#X connect 178 2 180 0;
#X connect 178 3 181 0;
#X connect 178 4 182 0;
#X connect 178 5 183 0;
#X connect 178 6 184 0;
#X connect 178 7 185 0;
#X connect 186 0 161 0;
#X connect 186 0 162 0;
#X connect 187 0 161 0;
#X connect 189 0 173 0;
#X connect 190 0 176 0;
#X connect 193 0 178 0;
#X connect 196 0 205 0;
#X connect 196 1 223 0;
#X connect 197 0 196 0;
#X connect 198 0 225 0;
#X connect 199 0 201 1;
#X connect 200 0 202 0;
#X connect 201 0 203 0;
#X connect 202 0 201 0;
#X connect 203 0 217 0;
#X connect 204 0 244 0;
#X connect 205 0 207 0;
#X connect 205 1 206 0;
#X connect 205 2 206 1;
#X connect 205 3 206 2;
#X connect 206 0 222 0;
#X connect 207 0 206 0;
#X connect 207 0 199 0;
#X connect 207 1 199 0;
#X connect 209 0 210 0;
#X connect 216 0 212 0;
#X connect 216 1 213 0;
#X connect 216 2 214 0;
#X connect 216 3 215 0;
#X connect 218 0 216 0;
#X connect 220 0 211 0;
#X connect 221 0 208 0;
#X connect 224 0 196 0;
#X connect 225 0 196 0;
#X connect 225 0 197 0;
#X connect 226 0 273 0;
#X connect 227 0 269 0;
#X connect 228 0 264 0;
#X connect 229 0 246 0;
#X connect 230 0 251 0;
#X connect 231 0 256 0;
#X connect 232 0 233 0;
#X connect 233 0 238 0;
#X connect 233 1 234 2;
#X connect 233 2 234 3;
#X connect 234 0 235 0;
#X connect 234 0 236 0;
#X connect 238 0 157 1;
#X connect 238 1 234 1;
#X connect 239 0 280 0;
#X connect 239 1 56 0;
#X connect 240 0 281 0;
#X connect 240 1 19 0;
#X connect 241 0 91 0;
#X connect 241 1 92 0;
#X connect 242 0 130 0;
#X connect 242 1 131 0;
#X connect 243 0 161 0;
#X connect 243 1 162 0;
#X connect 244 0 196 0;
#X connect 244 1 197 0;
#X connect 245 0 247 0;
#X connect 246 0 247 0;
#X connect 247 0 259 0;
#X connect 248 0 262 0;
#X connect 249 0 245 0;
#X connect 250 0 252 0;
#X connect 251 0 252 0;
#X connect 252 0 248 1;
#X connect 253 0 250 0;
#X connect 254 0 5 0;
#X connect 255 0 257 0;
#X connect 256 0 257 0;
#X connect 257 0 262 1;
#X connect 258 0 255 0;
#X connect 259 0 248 0;
#X connect 260 0 261 0;
#X connect 261 0 248 0;
#X connect 262 0 267 0;
#X connect 263 0 265 0;
#X connect 264 0 265 0;
#X connect 265 0 267 1;
#X connect 266 0 263 0;
#X connect 267 0 276 0;
#X connect 268 0 270 0;
#X connect 269 0 270 0;
#X connect 270 0 276 1;
#X connect 271 0 268 0;
#X connect 272 0 274 0;
#X connect 273 0 274 0;
#X connect 274 0 277 1;
#X connect 275 0 272 0;
#X connect 276 0 277 0;
#X connect 277 0 347 0;
#X connect 278 0 288 0;
#X connect 278 0 301 0;
#X connect 279 0 17 0;
#X connect 280 0 64 0;
#X connect 280 1 117 0;
#X connect 281 0 42 0;
#X connect 281 1 46 0;
#X connect 282 0 20 0;
#X connect 283 0 57 0;
#X connect 284 0 93 0;
#X connect 285 0 132 0;
#X connect 286 0 163 0;
#X connect 287 0 198 0;
#X connect 288 0 279 0;
#X connect 289 0 290 0;
#X connect 290 0 19 0;
#X connect 291 0 292 0;
#X connect 292 0 56 0;
#X connect 293 0 294 0;
#X connect 294 0 92 0;
#X connect 295 0 296 0;
#X connect 296 0 131 0;
#X connect 297 0 298 0;
#X connect 298 0 162 0;
#X connect 299 0 300 0;
#X connect 300 0 197 0;
#X connect 301 0 17 0;
#X connect 302 0 327 0;
#X connect 303 0 331 0;
#X connect 304 0 306 1;
#X connect 305 0 307 0;
#X connect 306 0 308 0;
#X connect 307 0 306 0;
#X connect 308 0 336 0;
#X connect 309 0 326 0;
#X connect 310 0 312 0;
#X connect 310 1 311 0;
#X connect 310 2 311 1;
#X connect 310 3 311 2;
#X connect 311 0 334 0;
#X connect 312 0 311 0;
#X connect 312 0 304 0;
#X connect 312 1 304 0;
#X connect 314 0 315 0;
#X connect 318 0 317 0;
#X connect 318 1 319 0;
#X connect 318 2 320 0;
#X connect 318 3 321 0;
#X connect 318 4 322 0;
#X connect 318 5 323 0;
#X connect 318 6 324 0;
#X connect 318 7 325 0;
#X connect 326 0 327 0;
#X connect 326 1 302 0;
#X connect 327 0 310 0;
#X connect 327 1 333 0;
#X connect 328 0 303 0;
#X connect 329 0 330 0;
#X connect 330 0 302 0;
#X connect 331 0 302 0;
#X connect 331 0 327 0;
#X connect 332 0 327 0;
#X connect 335 0 313 0;
#X connect 337 0 316 0;
#X connect 338 0 340 0;
#X connect 339 0 340 0;
#X connect 340 0 347 1;
#X connect 341 0 338 0;
#X connect 342 0 339 0;
#X connect 343 0 344 0;
#X connect 344 0 345 0;
#X connect 345 0 346 0;
#X connect 347 0 343 0;
#X connect 348 0 318 0;
#X connect 350 0 351 0;
#X connect 350 1 355 0;
#X connect 352 0 350 0;
#X connect 353 0 352 0;
#X connect 354 0 353 0;
