#N canvas 82 40 2478 1325 12;
#X obj 328 19 vsl 20 170 100 5000 0 0 empty empty empty 0 -9 0 12 #fcfcfc #000000 #000000 0 1;
#X floatatom 329 243 5 0 0 0 - - - 0;
#X msg 147 72 devices;
#X msg 147 102 ports;
#X msg 147 136 devices usb;
#X msg 147 166 ports usb;
#X obj 330 394 comport 0 115200;
#X msg 388 365 open 0;
#X obj 329 331 cyclone/append 32 13;
#X obj 329 267 moocow/any2bytes;
#X obj 329 292 cyclone/zl ecils 1;
#X obj 361 202 bng 20 250 50 0 empty empty empty 0 -10 0 12 #fcfcfc #000000 #000000;
#X obj 374 132 delay 0.1;
#X obj 330 419 print;
#X msg 448 364 close;
#X connect 0 0 1 0;
#X connect 0 0 12 0;
#X connect 1 0 9 0;
#X connect 2 0 6 0;
#X connect 3 0 6 0;
#X connect 4 0 6 0;
#X connect 5 0 6 0;
#X connect 6 0 13 0;
#X connect 7 0 6 0;
#X connect 8 0 6 0;
#X connect 9 0 10 0;
#X connect 10 0 8 0;
#X connect 11 0 1 0;
#X connect 12 0 11 0;
#X connect 14 0 6 0;
