#N canvas 372 98 3032 1767 12;
#X obj 36 27 ctlin;
#X obj 151 184 vsl 20 170 0 127 0 0 empty empty empty 0 -9 0 12 #fcfcfc #000000 #000000 0 1;
#X obj 151 368 i;
#X obj 151 393 change;
#X obj 62 466 bng 20 250 50 0 empty empty empty 0 -10 0 12 #fcfcfc #000000 #000000;
#X obj 206 184 vsl 20 170 0 127 0 0 empty empty empty 0 -9 0 12 #fcfcfc #000000 #000000 0 1;
#X obj 206 368 i;
#X obj 206 393 change;
#X obj 261 184 vsl 20 170 0 127 0 0 empty empty empty 0 -9 0 12 #fcfcfc #000000 #000000 0 1;
#X obj 261 368 i;
#X obj 261 393 change;
#X obj 316 184 vsl 20 170 0 127 0 0 empty empty empty 0 -9 0 12 #fcfcfc #000000 #000000 0 1;
#X obj 316 368 i;
#X obj 316 393 change;
#X obj 372 184 vsl 20 170 0 127 0 0 empty empty empty 0 -9 0 12 #fcfcfc #000000 #000000 0 1;
#X obj 372 368 i;
#X obj 372 393 change;
#X obj 427 184 vsl 20 170 0 127 0 0 empty empty empty 0 -9 0 12 #fcfcfc #000000 #000000 0 1;
#X obj 427 368 i;
#X obj 427 393 change;
#X obj 483 184 vsl 20 170 0 127 0 0 empty empty empty 0 -9 0 12 #fcfcfc #000000 #000000 0 1;
#X obj 483 368 i;
#X obj 483 393 change;
#X obj 539 184 vsl 20 170 0 127 0 0 empty empty empty 0 -9 0 12 #fcfcfc #000000 #000000 0 1;
#X obj 539 368 i;
#X obj 539 393 change;
#X obj 91 513 realtime;
#X obj 94 803 textfile;
#X obj 116 694 t b;
#X obj 866 242 textfile;
#X msg 900 172 rewind;
#X obj 950 211 bng 20 250 50 0 empty empty empty 0 -10 0 12 #fcfcfc #000000 #000000;
#X obj 91 551 t f, f 7;
#X obj 871 361 unpack f f f f f f f f f, f 63;
#X msg 94 650 add \$1 \$2 \$3 \$4 \$5 \$6 \$7 \$8 \$9;
#X obj 94 607 pack f f f f f f f f f, f 64;
#X obj 775 268 realtime;
#X obj 791 183 metro 1;
#X obj 916 428 vsl 20 170 0 127 0 0 empty empty empty 0 -9 0 12 #fcfcfc #000000 #000000 0 1;
#X obj 971 428 vsl 20 170 0 127 0 0 empty empty empty 0 -9 0 12 #fcfcfc #000000 #000000 0 1;
#X obj 1026 428 vsl 20 170 0 127 0 0 empty empty empty 0 -9 0 12 #fcfcfc #000000 #000000 0 1;
#X obj 1081 428 vsl 20 170 0 127 0 0 empty empty empty 0 -9 0 12 #fcfcfc #000000 #000000 0 1;
#X obj 1135 428 vsl 20 170 0 127 0 0 empty empty empty 0 -9 0 12 #fcfcfc #000000 #000000 0 1;
#X obj 1190 428 vsl 20 170 0 127 0 0 empty empty empty 0 -9 0 12 #fcfcfc #000000 #000000 0 1;
#X obj 1245 428 vsl 20 170 0 127 0 0 empty empty empty 0 -9 0 12 #fcfcfc #000000 #000000 0 1;
#X obj 1300 428 vsl 20 170 0 127 0 0 empty empty empty 0 -9 0 12 #fcfcfc #000000 #000000 0 1;
#X obj 792 128 tgl 40 0 empty empty empty 0 -10 0 12 #fcfcfc #000000 #000000 0 1;
#X obj 939 288 s eof;
#X obj 1042 129 r eof;
#X obj 913 323 print data;
#X obj 36 60 pack f f;
#X msg 50 101 \$2 \$1;
#X obj 611 168 print other;
#X floatatom 784 477 6 0 0 0 - - - 0;
#X text 400 47 RECORD;
#X text 1137 227 PLAYBACK;
#X obj 800 582 s nextline;
#X obj 975 183 r nextline;
#X obj 774 227 bng 20 250 50 0 empty empty empty 0 -10 0 12 #fcfcfc #000000 #000000;
#X obj 24 166 change;
#X obj 151 130 route 0 1 2 3 4 5 6 7 45, f 71;
#X obj 51 129 s midi;
#X obj 151 93 r midi;
#X obj 789 48 r midi;
#X obj 789 75 route 41 42 43 44 61 62, f 31;
#X msg 17 697 clear;
#X msg 183 769 write automation.txt;
#X msg 865 129 read automation.txt;
#X obj 71 349 r rec_btn;
#X obj 17 667 r rec_btn;
#X obj 183 728 delay 10;
#X obj 590 232 bng 40 250 50 0 rec_btn empty START\ NEW\ REC 0 -10 0 12 #ffffff #ff0400 #000000;
#X floatatom 774 301 9 0 0 0 - - - 0;
#X obj 774 325 / 100;
#X obj 774 352 i;
#X floatatom 846 476 6 0 0 0 - - - 0;
#X floatatom 847 393 9 0 0 0 - - - 0;
#X obj 847 417 / 100;
#X obj 847 444 i;
#X obj 774 396 t f b;
#X obj 800 552 select 1;
#X obj 733 187 r eof;
#X obj 277 717 bng 40 250 50 0 empty empty SAVE\ RECORDING 0 -10 0 12 #fcfcfc #00ff04 #000000;
#X obj 800 520 >=;
#X obj 1036 70 bng 30 250 50 0 empty empty LOAD\ RECORDING 0 -10 0 12 #fcfcfc #0400ff #000000;
#X obj 183 794 s written;
#X obj 864 102 r written;
#X obj 590 301 bng 40 250 50 0 end_rec empty END\ RECORDING 0 -10 0 12 #ffffff #ff0400 #000000;
#X obj 70 432 r end_rec;
#X obj 183 699 r end_rec;
#X obj 71 374 t b b;
#X obj 733 302 s rt;
#X obj 1103 653 r rt;
#X obj 1103 682 / 1000;
#X obj 1103 714 mod 60;
#X obj 1103 739 i;
#X floatatom 1100 769 5 0 0 3 sec - - 36;
#X obj 980 716 mod 60;
#X obj 980 741 i;
#X floatatom 980 769 5 0 0 3 min - - 36;
#X obj 980 689 / 60;
#X obj 593 681 / 1000;
#X obj 593 713 mod 60;
#X obj 593 738 i;
#X floatatom 590 768 5 0 0 3 sec - - 36;
#X obj 470 715 mod 60;
#X obj 470 740 i;
#X floatatom 470 768 5 0 0 3 min - - 36;
#X obj 470 688 / 60;
#X obj 592 631 realtime;
#X obj 608 546 metro 1;
#X obj 609 491 tgl 40 0 empty empty empty 0 -10 0 12 #fcfcfc #000000 #000000 0 1;
#X obj 591 590 bng 20 250 50 0 empty empty empty 0 -10 0 12 #fcfcfc #000000 #000000;
#X obj 588 451 r rec_btn;
#X obj 662 451 r end_rec;
#X connect 0 0 50 0;
#X connect 0 1 50 1;
#X connect 1 0 2 0;
#X connect 2 0 3 0;
#X connect 3 0 35 1;
#X connect 4 0 26 1;
#X connect 4 0 35 0;
#X connect 5 0 6 0;
#X connect 6 0 7 0;
#X connect 7 0 35 2;
#X connect 8 0 9 0;
#X connect 9 0 10 0;
#X connect 10 0 35 3;
#X connect 11 0 12 0;
#X connect 12 0 13 0;
#X connect 13 0 35 4;
#X connect 14 0 15 0;
#X connect 15 0 16 0;
#X connect 16 0 35 5;
#X connect 17 0 18 0;
#X connect 18 0 19 0;
#X connect 19 0 35 6;
#X connect 20 0 21 0;
#X connect 21 0 22 0;
#X connect 22 0 35 7;
#X connect 23 0 24 0;
#X connect 24 0 25 0;
#X connect 25 0 35 8;
#X connect 26 0 32 0;
#X connect 29 0 33 0;
#X connect 29 1 47 0;
#X connect 30 0 29 0;
#X connect 30 0 31 0;
#X connect 31 0 29 0;
#X connect 32 0 35 0;
#X connect 33 0 76 0;
#X connect 33 1 38 0;
#X connect 33 2 39 0;
#X connect 33 3 40 0;
#X connect 33 4 41 0;
#X connect 33 5 42 0;
#X connect 33 6 43 0;
#X connect 33 7 44 0;
#X connect 33 8 45 0;
#X connect 34 0 28 0;
#X connect 34 0 27 0;
#X connect 35 0 34 0;
#X connect 36 0 72 0;
#X connect 36 0 91 0;
#X connect 37 0 36 1;
#X connect 46 0 37 0;
#X connect 46 0 30 0;
#X connect 46 0 58 0;
#X connect 48 0 30 0;
#X connect 50 0 51 0;
#X connect 50 0 59 0;
#X connect 51 0 61 0;
#X connect 53 0 83 0;
#X connect 57 0 31 0;
#X connect 58 0 36 0;
#X connect 58 0 36 1;
#X connect 59 0 4 0;
#X connect 60 0 1 0;
#X connect 60 1 5 0;
#X connect 60 2 8 0;
#X connect 60 3 11 0;
#X connect 60 4 14 0;
#X connect 60 5 17 0;
#X connect 60 6 20 0;
#X connect 60 7 23 0;
#X connect 60 8 71 0;
#X connect 60 9 52 0;
#X connect 62 0 60 0;
#X connect 63 0 64 0;
#X connect 64 0 46 0;
#X connect 64 3 31 0;
#X connect 64 5 31 0;
#X connect 65 0 27 0;
#X connect 66 0 27 0;
#X connect 66 0 85 0;
#X connect 67 0 29 0;
#X connect 67 0 30 0;
#X connect 68 0 90 0;
#X connect 69 0 65 0;
#X connect 70 0 66 0;
#X connect 72 0 73 0;
#X connect 73 0 74 0;
#X connect 74 0 79 0;
#X connect 75 0 83 1;
#X connect 76 0 77 0;
#X connect 77 0 78 0;
#X connect 78 0 75 0;
#X connect 79 0 53 0;
#X connect 79 1 75 0;
#X connect 80 0 56 0;
#X connect 81 0 58 0;
#X connect 82 0 66 0;
#X connect 83 0 80 0;
#X connect 84 0 67 0;
#X connect 86 0 67 0;
#X connect 88 0 4 0;
#X connect 89 0 70 0;
#X connect 90 0 4 0;
#X connect 90 1 26 0;
#X connect 92 0 93 0;
#X connect 93 0 94 0;
#X connect 93 0 100 0;
#X connect 94 0 95 0;
#X connect 95 0 96 0;
#X connect 97 0 98 0;
#X connect 98 0 99 0;
#X connect 100 0 97 0;
#X connect 101 0 102 0;
#X connect 101 0 108 0;
#X connect 102 0 103 0;
#X connect 103 0 104 0;
#X connect 105 0 106 0;
#X connect 106 0 107 0;
#X connect 108 0 105 0;
#X connect 109 0 101 0;
#X connect 110 0 109 1;
#X connect 111 0 110 0;
#X connect 111 0 112 0;
#X connect 112 0 109 0;
#X connect 112 0 109 1;
#X connect 113 0 112 0;
#X connect 113 0 111 0;
#X connect 114 0 111 0;
