#N canvas 339 262 1513 603 12;
#X obj 311 272 bng 20 250 50 0 empty empty empty 0 -10 0 12 #fcfcfc
#000000 #000000;
#X obj 302 134 tgl 20 0 empty empty empty 0 -10 0 12 #fcfcfc #000000
#000000 0 1;
#X obj 302 171 metro 1000;
#X obj 117 470 *~;
#X obj 193 284 vsl 20 170 0 1 0 0 empty empty empty 0 -9 0 12 #fcfcfc
#000000 #000000 0 1;
#X floatatom 251 424 5 0 0 0 - - - 0;
#X obj 253 388 line 0 10;
#X msg 253 359 \$1 200;
#X msg 311 322 0;
#X obj 562 293 bng 20 250 50 0 empty empty empty 0 -10 0 12 #fcfcfc
#000000 #000000;
#X obj 352 487 *~;
#X obj 444 281 vsl 20 170 0 1 0 0 empty empty empty 0 -9 0 12 #fcfcfc
#000000 #000000 0 1;
#X floatatom 502 445 5 0 0 0 - - - 0;
#X obj 504 409 line 0 10;
#X msg 504 380 \$1 200;
#X msg 562 343 0;
#X obj 399 130 hsl 170 20 500 4000 0 0 empty empty empty -2 -10 0 12
#fcfcfc #000000 #000000 0 1;
#X floatatom 406 166 5 0 0 0 - - - 0;
#X obj 898 264 bng 20 250 50 0 empty empty empty 0 -10 0 12 #fcfcfc
#000000 #000000;
#X obj 889 126 tgl 20 0 empty empty empty 0 -10 0 12 #fcfcfc #000000
#000000 0 1;
#X obj 889 163 metro 1000;
#X obj 704 462 *~;
#X obj 780 276 vsl 20 170 0 1 0 0 empty empty empty 0 -9 0 12 #fcfcfc
#000000 #000000 0 1;
#X floatatom 838 416 5 0 0 0 - - - 0;
#X obj 840 380 line 0 10;
#X msg 840 351 \$1 200;
#X obj 898 289 delay 300;
#X msg 898 314 0;
#X obj 1149 285 bng 20 250 50 0 empty empty empty 0 -10 0 12 #fcfcfc
#000000 #000000;
#X obj 955 468 *~;
#X obj 1031 273 vsl 20 170 0 1 0 0 empty empty empty 0 -9 0 12 #fcfcfc
#000000 #000000 0 1;
#X floatatom 1089 437 5 0 0 0 - - - 0;
#X obj 1091 401 line 0 10;
#X msg 1091 372 \$1 200;
#X msg 1149 335 0;
#X msg 1093 336 0.5;
#X obj 938 205 delay 200;
#X obj 1149 310 delay 100;
#X msg 842 315 0.1;
#X obj 997 134 hsl 170 20 500 10000 0 0 empty empty empty -2 -10 0
12 #fcfcfc #000000 #000000 0 1;
#X floatatom 992 161 5 0 0 0 - - - 0;
#X obj 946 369 osc~ 410;
#X obj 695 363 osc~ 402;
#X obj 108 371 osc~ 989;
#X obj 359 377 osc~ 1002;
#X obj 311 297 delay 30;
#X obj 562 318 delay 30;
#X obj 351 213 delay 100;
#X msg 255 323 0.2;
#X msg 506 344 0.5;
#X obj 122 74 loadbang;
#X obj 122 99 delay 1000;
#X msg 122 124 1;
#X obj 122 149 s lb;
#X obj 302 104 r lb;
#X obj 396 74 r lb;
#X obj 993 80 r lb;
#X obj 889 96 r lb;
#X obj 592 545 dac~ 17 18;
#X msg 394 103 2032;
#X msg 993 107 5671;
#X connect 0 0 45 0;
#X connect 1 0 2 0;
#X connect 2 0 0 0;
#X connect 2 0 48 0;
#X connect 2 0 47 0;
#X connect 3 0 58 0;
#X connect 4 0 3 1;
#X connect 5 0 4 0;
#X connect 6 0 5 0;
#X connect 7 0 6 0;
#X connect 8 0 7 0;
#X connect 9 0 49 0;
#X connect 9 0 46 0;
#X connect 10 0 58 1;
#X connect 11 0 10 1;
#X connect 12 0 11 0;
#X connect 13 0 12 0;
#X connect 14 0 13 0;
#X connect 15 0 14 0;
#X connect 16 0 17 0;
#X connect 16 0 2 1;
#X connect 18 0 26 0;
#X connect 19 0 20 0;
#X connect 20 0 18 0;
#X connect 20 0 38 0;
#X connect 20 0 36 0;
#X connect 21 0 58 0;
#X connect 22 0 21 1;
#X connect 23 0 22 0;
#X connect 24 0 23 0;
#X connect 25 0 24 0;
#X connect 26 0 27 0;
#X connect 27 0 25 0;
#X connect 28 0 35 0;
#X connect 28 0 37 0;
#X connect 29 0 58 1;
#X connect 30 0 29 1;
#X connect 31 0 30 0;
#X connect 32 0 31 0;
#X connect 33 0 32 0;
#X connect 34 0 33 0;
#X connect 35 0 33 0;
#X connect 36 0 28 0;
#X connect 37 0 34 0;
#X connect 38 0 25 0;
#X connect 39 0 40 0;
#X connect 39 0 20 1;
#X connect 41 0 29 0;
#X connect 42 0 21 0;
#X connect 43 0 3 0;
#X connect 44 0 10 0;
#X connect 45 0 8 0;
#X connect 46 0 15 0;
#X connect 47 0 9 0;
#X connect 48 0 7 0;
#X connect 49 0 14 0;
#X connect 50 0 51 0;
#X connect 51 0 52 0;
#X connect 52 0 53 0;
#X connect 54 0 1 0;
#X connect 55 0 59 0;
#X connect 56 0 60 0;
#X connect 57 0 19 0;
#X connect 59 0 16 0;
#X connect 60 0 39 0;
