#N canvas 378 144 2478 922 12;
#X obj 502 263 realtime;
#X obj 421 159 bng 40 250 50 0 empty empty START 0 -10 0 12 #ffffff #00ff04 #000000;
#X obj 321 132 r rt;
#X obj 321 161 / 1000;
#X obj 321 193 mod 60;
#X obj 321 218 i;
#X floatatom 318 248 5 0 0 3 sec - - 36;
#X obj 198 195 mod 60;
#X obj 198 220 i;
#X floatatom 198 248 5 0 0 3 min - - 36;
#X obj 198 168 / 60;
#X obj 502 296 s rt;
#X obj 533 215 metro 1;
#X obj 530 164 tgl 40 0 empty empty RUN 0 -10 0 12 #fcfcfc #000000 #000000 0 1;
#X obj 444 231 s start;
#X msg 226 588 rewind;
#X obj 202 431 bng 30 250 50 0 empty empty LOAD\ RECORDING 0 -10 0 12 #fcfcfc #0400ff #000000;
#X floatatom 194 817 7 0 0 0 - - - 0;
#X obj 137 817 r rt;
#X obj 183 879 >=;
#X floatatom 137 842 12 0 0 0 - - - 0;
#X obj 183 913 select 1;
#X obj 221 527 r start;
#X obj 192 733 t b f;
#X obj 262 849 bng 20 250 50 0 empty empty empty 0 -10 0 12 #fcfcfc #000000 #000000;
#X obj 355 824 r start;
#X obj 355 849 bng 20 250 50 0 empty empty empty 0 -10 0 12 #fcfcfc #000000 #000000;
#X obj 263 902 bng 20 250 50 0 empty empty empty 0 -10 0 12 #fcfcfc #000000 #000000;
#X obj 569 263 realtime;
#X obj 604 155 r midi;
#X obj 604 196 unpack f f f;
#X obj 590 337 pack f f f f;
#X obj 597 369 s rtmidi;
#X obj 602 226 t b f;
#X obj 211 557 t b b;
#X obj 526 65 loadbang;
#X msg 560 125 1;
#X obj 202 625 textfile;
#X obj 202 380 loadbang;
#X obj 560 99 delay 2000;
#X obj 327 485 loadbang;
#X obj 330 524 delay 1000;
#X msg 522 111 0;
#X obj 1232 672 cyclone/append 32 13;
#X obj 1232 618 moocow/any2bytes;
#X obj 1232 644 cyclone/zl ecils 1;
#X obj 908 487 loadbang;
#X msg 956 685 close;
#X floatatom 890 812 10 0 0 3 baud - - 0;
#X floatatom 971 812 3 0 0 3 port - - 0;
#X obj 1051 812 tgl 15 0 empty empty open -6 20 1 11 #14e814 #fc2828 #000000 0 1;
#X obj 1133 812 tgl 15 0 empty empty hupcl -6 20 1 11 #14e814 #fc2828 #000000 0 1;
#X floatatom 1212 811 8 0 0 3 rxerrors - - 0;
#X obj 890 788 route baud port open hupcl rxerrors, f 58;
#X text 910 768 general info;
#X msg 809 691 info;
#X msg 956 710 0;
#X obj 774 744 comport 32 115200;
#X obj 813 654 bng 20 250 50 0 empty empty empty 0 -10 0 12 #fcfcfc #000000 #000000;
#X msg 202 499 read pos.log;
#X obj 283 588 r pos_nextline;
#X obj 255 659 s pos_eof;
#X obj 421 78 r pos_eof;
#X obj 202 698 unpack f f, f 15;
#X obj 183 941 s pos_nextline;
#X obj 263 877 r pos_nextline;
#X obj 262 824 r pos_eof;
#X obj 304 784 s pos_ctl;
#X obj 742 458 r pos_serial_data;
#X msg 774 580 devicename /dev/pos;
#X obj 1232 697 s pos_serial_data;
#X obj 1051 853 s pos_open;
#X floatatom 304 756 5 0 0 0 - - - 0;
#X obj 813 622 r pos_ctl;
#X obj 304 729 change;
#X obj 1244 531 bng 20 250 50 0 empty empty empty 0 -10 0 12 #fcfcfc #000000 #000000;
#X obj 1244 558 list;
#X obj 1244 498 metro 10;
#X obj 1382 333 bng 20 250 50 0 empty empty empty 0 -10 0 12 #fcfcfc #000000 #000000;
#X msg 1382 358 1;
#X obj 1382 389 tgl 20 0 empty empty empty 0 -10 0 12 #fcfcfc #000000 #000000 0 1;
#X msg 1416 358 0;
#X obj 1382 414 t b f;
#X obj 1210 366 tgl 20 0 empty empty empty 0 -10 0 12 #fcfcfc #000000 #000000 0 1;
#X obj 1244 424 ||;
#X obj 1241 395 t b f;
#X obj 1244 460 &&;
#X obj 1382 304 r pos_ctl;
#X obj 1416 331 r pos_serial_data;
#X obj 1241 367 r pos_open;
#X obj 777 502 print;
#X obj 1269 531 r pos_ctl;
#X obj 153 540 bng 20 250 50 0 empty empty empty 0 -10 0 12 #fcfcfc #000000 #000000;
#X obj 143 647 bng 20 250 50 0 empty empty empty 0 -10 0 12 #fcfcfc #000000 #000000;
#X obj 160 607 bng 20 250 50 0 empty empty empty 0 -10 0 12 #fcfcfc #000000 #000000;
#X obj 358 654 bng 20 250 50 0 empty empty empty 0 -10 0 12 #fcfcfc #000000 #000000;
#X obj 421 103 del 0;
#X connect 0 0 11 0;
#X connect 1 0 0 0;
#X connect 1 0 0 1;
#X connect 1 0 14 0;
#X connect 1 0 28 0;
#X connect 1 0 28 1;
#X connect 2 0 3 0;
#X connect 3 0 4 0;
#X connect 3 0 10 0;
#X connect 4 0 5 0;
#X connect 5 0 6 0;
#X connect 7 0 8 0;
#X connect 8 0 9 0;
#X connect 10 0 7 0;
#X connect 12 0 0 1;
#X connect 13 0 12 0;
#X connect 13 0 1 0;
#X connect 15 0 37 0;
#X connect 15 0 94 0;
#X connect 16 0 59 0;
#X connect 17 0 19 1;
#X connect 18 0 20 0;
#X connect 19 0 21 0;
#X connect 20 0 19 0;
#X connect 21 0 64 0;
#X connect 22 0 34 0;
#X connect 23 0 17 0;
#X connect 23 1 17 0;
#X connect 25 0 26 0;
#X connect 28 0 31 0;
#X connect 29 0 30 0;
#X connect 30 0 33 0;
#X connect 30 1 31 2;
#X connect 30 2 31 3;
#X connect 31 0 32 0;
#X connect 33 0 28 1;
#X connect 33 1 31 1;
#X connect 34 0 37 0;
#X connect 34 1 15 0;
#X connect 35 0 42 0;
#X connect 35 0 39 0;
#X connect 36 0 13 0;
#X connect 37 0 93 0;
#X connect 37 0 63 0;
#X connect 37 1 61 0;
#X connect 37 1 95 0;
#X connect 38 0 16 0;
#X connect 39 0 36 0;
#X connect 41 0 15 0;
#X connect 42 0 13 0;
#X connect 43 0 70 0;
#X connect 44 0 45 0;
#X connect 45 0 43 0;
#X connect 46 0 69 0;
#X connect 47 0 56 0;
#X connect 47 0 57 0;
#X connect 50 0 71 0;
#X connect 53 0 48 0;
#X connect 53 1 49 0;
#X connect 53 2 50 0;
#X connect 53 3 51 0;
#X connect 53 4 52 0;
#X connect 55 0 57 0;
#X connect 56 0 50 0;
#X connect 57 1 53 0;
#X connect 58 0 55 0;
#X connect 59 0 15 0;
#X connect 59 0 37 0;
#X connect 59 0 92 0;
#X connect 60 0 37 0;
#X connect 62 0 96 0;
#X connect 63 0 23 0;
#X connect 63 1 74 0;
#X connect 65 0 27 0;
#X connect 66 0 24 0;
#X connect 68 0 57 0;
#X connect 68 0 90 0;
#X connect 69 0 57 0;
#X connect 69 0 55 0;
#X connect 72 0 67 0;
#X connect 73 0 58 0;
#X connect 74 0 72 0;
#X connect 75 0 76 0;
#X connect 76 0 44 0;
#X connect 77 0 75 0;
#X connect 78 0 79 0;
#X connect 79 0 80 0;
#X connect 80 0 82 0;
#X connect 81 0 80 0;
#X connect 82 0 86 0;
#X connect 82 1 86 1;
#X connect 83 0 84 0;
#X connect 84 0 86 0;
#X connect 85 0 84 0;
#X connect 85 1 84 1;
#X connect 86 0 77 0;
#X connect 87 0 78 0;
#X connect 88 0 81 0;
#X connect 89 0 85 0;
#X connect 91 0 76 1;
#X connect 96 0 1 0;
