#N canvas 943 118 1410 541 12;
#X obj 125 200 bng 20 250 50 0 empty empty empty 0 -10 0 12 #fcfcfc #000000 #000000;
#X obj 125 225 array get dmxdata;
#X obj 125 250 list prepend 0;
#X obj 125 275 list prepend 0x02 0x01;
#X obj 125 300 list prepend 0x06;
#X obj 125 327 list prepend 0x7E;
#X obj 125 370 list append 0xE7;
#X obj 491 281 array set dmxdata;
#X obj 149 74 array define dmxdata 512;
#X obj 155 17 bng 20 250 50 0 empty empty empty 0 -10 0 12 #fcfcfc #000000 #000000;
#X obj 490 253 pack f f;
#X obj 124 423 comport 57600 /dev/ttyUSB0;
#X msg 441 371 close;
#X msg 404 324 ports;
#X msg 321 371 devices usb;
#X msg 296 329 open 32;
#X obj 463 1 vsl 20 170 0 255 0 0 empty empty empty 0 -9 0 12 #fcfcfc #000000 #000000 0 1;
#X obj 462 182 t b b f, f 10;
#X msg 489 220 0;
#X text 125 167 ENTTEC DMX Protocol;
#X connect 0 0 1 0;
#X connect 1 0 2 0;
#X connect 2 0 3 0;
#X connect 3 0 4 0;
#X connect 4 0 5 0;
#X connect 5 0 6 0;
#X connect 6 0 11 0;
#X connect 9 0 8 0;
#X connect 10 0 7 0;
#X connect 12 0 11 0;
#X connect 13 0 11 0;
#X connect 14 0 11 0;
#X connect 15 0 11 0;
#X connect 16 0 17 0;
#X connect 17 0 0 0;
#X connect 17 1 18 0;
#X connect 17 2 10 1;
#X connect 18 0 10 0;
