#N canvas 82 40 2478 1325 12;
#X obj 549 230 vsl 20 170 0 127 0 0 empty empty empty 0 -9 0 12 #fcfcfc #000000 #000000 0 1;
#X text 664 147 RECORD;
#X obj 549 152 r midi;
#X obj 88 133 ctlin;
#X obj 88 166 pack f f;
#X msg 102 207 \$2 \$1;
#X obj 103 235 s midi;
#X obj 549 182 route 0 1 2 3 4 5 6 7, f 62;
#X obj 549 408 t b f;
#X obj 603 229 vsl 20 170 0 127 0 0 empty empty empty 0 -9 0 12 #fcfcfc #000000 #000000 0 1;
#X obj 603 407 t b f;
#X obj 657 229 vsl 20 170 0 127 0 0 empty empty empty 0 -9 0 12 #fcfcfc #000000 #000000 0 1;
#X obj 657 408 t b f;
#X obj 711 228 vsl 20 170 0 127 0 0 empty empty empty 0 -9 0 12 #fcfcfc #000000 #000000 0 1;
#X obj 711 406 t b f;
#X obj 765 227 vsl 20 170 0 127 0 0 empty empty empty 0 -9 0 12 #fcfcfc #000000 #000000 0 1;
#X obj 765 405 t b f;
#X obj 819 226 vsl 20 170 0 127 0 0 empty empty empty 0 -9 0 12 #fcfcfc #000000 #000000 0 1;
#X obj 819 404 t b f;
#X obj 873 226 vsl 20 170 0 127 0 0 empty empty empty 0 -9 0 12 #fcfcfc #000000 #000000 0 1;
#X obj 873 404 t b f;
#X obj 928 225 vsl 20 170 0 127 0 0 empty empty empty 0 -9 0 12 #fcfcfc #000000 #000000 0 1;
#X obj 928 403 t b f;
#X obj 374 467 realtime;
#X obj 342 366 bng 40 250 50 0 empty empty START 0 -10 0 12 #ffffff #00ff04 #000000;
#X obj 1313 215 unpack f f f f f f f f f, f 57;
#X floatatom 1208 293 14 0 0 0 - - - 0;
#X obj 1336 284 vsl 20 170 0 127 0 0 empty empty empty 0 -9 0 12 #fcfcfc #000000 #000000 0 1;
#X obj 1390 283 vsl 20 170 0 127 0 0 empty empty empty 0 -9 0 12 #fcfcfc #000000 #000000 0 1;
#X obj 1443 283 vsl 20 170 0 127 0 0 empty empty empty 0 -9 0 12 #fcfcfc #000000 #000000 0 1;
#X obj 1497 282 vsl 20 170 0 127 0 0 empty empty empty 0 -9 0 12 #fcfcfc #000000 #000000 0 1;
#X obj 1554 281 vsl 20 170 0 127 0 0 empty empty empty 0 -9 0 12 #fcfcfc #000000 #000000 0 1;
#X obj 1608 280 vsl 20 170 0 127 0 0 empty empty empty 0 -9 0 12 #fcfcfc #000000 #000000 0 1;
#X obj 1661 280 vsl 20 170 0 127 0 0 empty empty empty 0 -9 0 12 #fcfcfc #000000 #000000 0 1;
#X obj 1715 279 vsl 20 170 0 127 0 0 empty empty empty 0 -9 0 12 #fcfcfc #000000 #000000 0 1;
#X obj 66 1038 netsend;
#X obj 471 666 s data;
#X obj 66 966 r data;
#X obj 358 83 hradio 30 1 0 4 empty empty BANK 0 -10 0 12 #00ff04 #000000 #000000 0;
#X obj 473 539 pack f f f f f f f f f f, f 70;
#X obj 1313 115 r data;
#X obj 1313 154 route 0;
#X obj 471 637 pack f f f f f f f f f f, f 28;
#X obj 473 573 unpack f f f f f f f f f f, f 28;
#X obj 468 607 t b f;
#X obj 1866 117 r data;
#X obj 1866 156 route 1;
#X obj 1386 48 r bank;
#X obj 1386 73 == 0;
#X obj 1386 102 tgl 60 0 empty empty empty 0 -10 0 12 #00ff04 #000000 #000000 0 1;
#X obj 1939 63 r bank;
#X obj 1939 117 tgl 60 0 empty empty empty 0 -10 0 12 #00ff04 #000000 #000000 0 1;
#X obj 1939 88 == 1;
#X obj 527 500 r bank;
#X obj 322 36 loadbang;
#X obj 1342 700 r data;
#X obj 1895 702 r data;
#X obj 1415 637 r bank;
#X obj 1415 691 tgl 60 0 empty empty empty 0 -10 0 12 #00ff04 #000000 #000000 0 1;
#X obj 1968 652 r bank;
#X obj 1968 706 tgl 60 0 empty empty empty 0 -10 0 12 #00ff04 #000000 #000000 0 1;
#X obj 1415 662 == 2;
#X obj 1968 677 == 3;
#X obj 1895 741 route 3;
#X obj 1342 739 route 2;
#X text 80 1092 $ pdreceive 3000 > data.log;
#X msg 318 966 disconnect;
#X msg 133 966 connect localhost 3000;
#X obj 887 759 r rt;
#X obj 887 788 / 1000;
#X obj 887 820 mod 60;
#X obj 887 845 i;
#X floatatom 884 875 5 0 0 3 sec - - 36;
#X obj 764 822 mod 60;
#X obj 764 847 i;
#X floatatom 764 875 5 0 0 3 min - - 36;
#X obj 764 795 / 60;
#X obj 373 500 s rt;
#X obj 405 419 metro 1;
#X obj 406 364 tgl 40 0 empty empty RUN 0 -10 0 12 #fcfcfc #000000 #000000 0 1;
#X obj 452 467 realtime;
#X obj 454 501 t b f;
#X obj 1277 474 pack f f f f f f f f f, f 63;
#X obj 605 62 route 0 1 2 3;
#X obj 611 101 unpack f f f f f f f f, f 57;
#X obj 1865 201 unpack f f f f f f f f f, f 57;
#X floatatom 1760 279 14 0 0 0 - - - 0;
#X obj 1888 270 vsl 20 170 0 127 0 0 empty empty empty 0 -9 0 12 #fcfcfc #000000 #000000 0 1;
#X obj 1942 269 vsl 20 170 0 127 0 0 empty empty empty 0 -9 0 12 #fcfcfc #000000 #000000 0 1;
#X obj 1995 269 vsl 20 170 0 127 0 0 empty empty empty 0 -9 0 12 #fcfcfc #000000 #000000 0 1;
#X obj 2049 268 vsl 20 170 0 127 0 0 empty empty empty 0 -9 0 12 #fcfcfc #000000 #000000 0 1;
#X obj 2106 267 vsl 20 170 0 127 0 0 empty empty empty 0 -9 0 12 #fcfcfc #000000 #000000 0 1;
#X obj 2160 266 vsl 20 170 0 127 0 0 empty empty empty 0 -9 0 12 #fcfcfc #000000 #000000 0 1;
#X obj 2213 266 vsl 20 170 0 127 0 0 empty empty empty 0 -9 0 12 #fcfcfc #000000 #000000 0 1;
#X obj 2267 265 vsl 20 170 0 127 0 0 empty empty empty 0 -9 0 12 #fcfcfc #000000 #000000 0 1;
#X obj 1829 460 pack f f f f f f f f f, f 63;
#X obj 1277 442 select 0;
#X obj 1827 425 select 1;
#X obj 358 118 t f f;
#X obj 1277 417 r sbank;
#X obj 1827 400 r sbank;
#X obj 359 177 s sbank;
#X obj 419 177 s bank;
#X obj 1342 777 unpack f f f f f f f f f, f 57;
#X floatatom 1237 855 14 0 0 0 - - - 0;
#X obj 1365 846 vsl 20 170 0 127 0 0 empty empty empty 0 -9 0 12 #fcfcfc #000000 #000000 0 1;
#X obj 1419 845 vsl 20 170 0 127 0 0 empty empty empty 0 -9 0 12 #fcfcfc #000000 #000000 0 1;
#X obj 1472 845 vsl 20 170 0 127 0 0 empty empty empty 0 -9 0 12 #fcfcfc #000000 #000000 0 1;
#X obj 1526 844 vsl 20 170 0 127 0 0 empty empty empty 0 -9 0 12 #fcfcfc #000000 #000000 0 1;
#X obj 1583 843 vsl 20 170 0 127 0 0 empty empty empty 0 -9 0 12 #fcfcfc #000000 #000000 0 1;
#X obj 1637 842 vsl 20 170 0 127 0 0 empty empty empty 0 -9 0 12 #fcfcfc #000000 #000000 0 1;
#X obj 1690 842 vsl 20 170 0 127 0 0 empty empty empty 0 -9 0 12 #fcfcfc #000000 #000000 0 1;
#X obj 1744 841 vsl 20 170 0 127 0 0 empty empty empty 0 -9 0 12 #fcfcfc #000000 #000000 0 1;
#X obj 1306 1036 pack f f f f f f f f f, f 63;
#X obj 1304 976 r sbank;
#X obj 1895 775 unpack f f f f f f f f f, f 57;
#X floatatom 1790 853 14 0 0 0 - - - 0;
#X obj 1918 844 vsl 20 170 0 127 0 0 empty empty empty 0 -9 0 12 #fcfcfc #000000 #000000 0 1;
#X obj 1972 843 vsl 20 170 0 127 0 0 empty empty empty 0 -9 0 12 #fcfcfc #000000 #000000 0 1;
#X obj 2025 843 vsl 20 170 0 127 0 0 empty empty empty 0 -9 0 12 #fcfcfc #000000 #000000 0 1;
#X obj 2079 842 vsl 20 170 0 127 0 0 empty empty empty 0 -9 0 12 #fcfcfc #000000 #000000 0 1;
#X obj 2136 841 vsl 20 170 0 127 0 0 empty empty empty 0 -9 0 12 #fcfcfc #000000 #000000 0 1;
#X obj 2190 840 vsl 20 170 0 127 0 0 empty empty empty 0 -9 0 12 #fcfcfc #000000 #000000 0 1;
#X obj 2243 840 vsl 20 170 0 127 0 0 empty empty empty 0 -9 0 12 #fcfcfc #000000 #000000 0 1;
#X obj 2297 839 vsl 20 170 0 127 0 0 empty empty empty 0 -9 0 12 #fcfcfc #000000 #000000 0 1;
#X obj 1859 1034 pack f f f f f f f f f, f 63;
#X obj 1857 974 r sbank;
#X obj 1304 1001 select 2;
#X obj 1857 999 select 3;
#X obj 1306 1061 s bank2data;
#X obj 1859 1059 s bank3data;
#X obj 1829 485 s bank1data;
#X obj 1277 499 s bank0data;
#X obj 548 16 r bank0data;
#X obj 647 17 r bank1data;
#X obj 739 17 r bank2data;
#X obj 838 18 r bank3data;
#X connect 0 0 8 0;
#X connect 2 0 7 0;
#X connect 3 0 4 0;
#X connect 3 1 4 1;
#X connect 4 0 5 0;
#X connect 5 0 6 0;
#X connect 7 0 0 0;
#X connect 7 1 9 0;
#X connect 7 2 11 0;
#X connect 7 3 13 0;
#X connect 7 4 15 0;
#X connect 7 5 17 0;
#X connect 7 6 19 0;
#X connect 7 7 21 0;
#X connect 8 0 80 1;
#X connect 8 1 39 2;
#X connect 9 0 10 0;
#X connect 10 0 80 1;
#X connect 10 1 39 3;
#X connect 11 0 12 0;
#X connect 12 0 80 1;
#X connect 12 1 39 4;
#X connect 13 0 14 0;
#X connect 14 0 80 1;
#X connect 14 1 39 5;
#X connect 15 0 16 0;
#X connect 16 0 80 1;
#X connect 16 1 39 6;
#X connect 17 0 18 0;
#X connect 18 0 80 1;
#X connect 18 1 39 7;
#X connect 19 0 20 0;
#X connect 20 0 80 1;
#X connect 20 1 39 8;
#X connect 21 0 22 0;
#X connect 22 0 80 1;
#X connect 22 1 39 9;
#X connect 23 0 77 0;
#X connect 24 0 23 0;
#X connect 24 0 23 1;
#X connect 24 0 80 1;
#X connect 24 0 80 0;
#X connect 25 0 26 0;
#X connect 25 1 27 0;
#X connect 25 2 28 0;
#X connect 25 3 29 0;
#X connect 25 4 30 0;
#X connect 25 5 31 0;
#X connect 25 6 32 0;
#X connect 25 7 33 0;
#X connect 25 8 34 0;
#X connect 27 0 82 1;
#X connect 28 0 82 2;
#X connect 29 0 82 3;
#X connect 30 0 82 4;
#X connect 31 0 82 5;
#X connect 32 0 82 6;
#X connect 33 0 82 7;
#X connect 34 0 82 8;
#X connect 37 0 35 0;
#X connect 38 0 98 0;
#X connect 39 0 43 0;
#X connect 40 0 41 0;
#X connect 41 0 25 0;
#X connect 42 0 36 0;
#X connect 43 0 44 0;
#X connect 43 1 42 0;
#X connect 43 2 42 2;
#X connect 43 3 42 3;
#X connect 43 4 42 4;
#X connect 43 5 42 5;
#X connect 43 6 42 6;
#X connect 43 7 42 7;
#X connect 43 8 42 8;
#X connect 43 9 42 9;
#X connect 44 0 42 0;
#X connect 44 1 42 1;
#X connect 45 0 46 0;
#X connect 46 0 85 0;
#X connect 47 0 48 0;
#X connect 48 0 49 0;
#X connect 50 0 52 0;
#X connect 52 0 51 0;
#X connect 53 0 39 1;
#X connect 54 0 38 0;
#X connect 55 0 64 0;
#X connect 56 0 63 0;
#X connect 57 0 61 0;
#X connect 59 0 62 0;
#X connect 61 0 58 0;
#X connect 62 0 60 0;
#X connect 63 0 115 0;
#X connect 64 0 103 0;
#X connect 66 0 35 0;
#X connect 67 0 35 0;
#X connect 68 0 69 0;
#X connect 69 0 70 0;
#X connect 69 0 76 0;
#X connect 70 0 71 0;
#X connect 71 0 72 0;
#X connect 73 0 74 0;
#X connect 74 0 75 0;
#X connect 76 0 73 0;
#X connect 78 0 23 1;
#X connect 79 0 78 0;
#X connect 80 0 81 0;
#X connect 81 0 39 0;
#X connect 81 1 39 0;
#X connect 82 0 132 0;
#X connect 83 0 84 0;
#X connect 83 1 84 0;
#X connect 84 0 0 0;
#X connect 84 1 9 0;
#X connect 84 2 11 0;
#X connect 84 3 13 0;
#X connect 84 4 15 0;
#X connect 84 5 17 0;
#X connect 84 6 19 0;
#X connect 84 7 21 0;
#X connect 85 0 86 0;
#X connect 85 1 87 0;
#X connect 85 2 88 0;
#X connect 85 3 89 0;
#X connect 85 4 90 0;
#X connect 85 5 91 0;
#X connect 85 6 92 0;
#X connect 85 7 93 0;
#X connect 85 8 94 0;
#X connect 87 0 95 1;
#X connect 88 0 95 2;
#X connect 89 0 95 3;
#X connect 90 0 95 4;
#X connect 91 0 95 5;
#X connect 92 0 95 6;
#X connect 93 0 95 7;
#X connect 94 0 95 8;
#X connect 95 0 131 0;
#X connect 96 0 82 0;
#X connect 97 0 95 0;
#X connect 98 0 101 0;
#X connect 98 1 102 0;
#X connect 99 0 96 0;
#X connect 100 0 97 0;
#X connect 103 0 104 0;
#X connect 103 1 105 0;
#X connect 103 2 106 0;
#X connect 103 3 107 0;
#X connect 103 4 108 0;
#X connect 103 5 109 0;
#X connect 103 6 110 0;
#X connect 103 7 111 0;
#X connect 103 8 112 0;
#X connect 105 0 113 1;
#X connect 106 0 113 2;
#X connect 107 0 113 3;
#X connect 108 0 113 4;
#X connect 109 0 113 5;
#X connect 110 0 113 6;
#X connect 111 0 113 7;
#X connect 112 0 113 8;
#X connect 113 0 129 0;
#X connect 114 0 127 0;
#X connect 115 0 116 0;
#X connect 115 1 117 0;
#X connect 115 2 118 0;
#X connect 115 3 119 0;
#X connect 115 4 120 0;
#X connect 115 5 121 0;
#X connect 115 6 122 0;
#X connect 115 7 123 0;
#X connect 115 8 124 0;
#X connect 117 0 125 1;
#X connect 118 0 125 2;
#X connect 119 0 125 3;
#X connect 120 0 125 4;
#X connect 121 0 125 5;
#X connect 122 0 125 6;
#X connect 123 0 125 7;
#X connect 124 0 125 8;
#X connect 125 0 130 0;
#X connect 126 0 128 0;
#X connect 127 0 113 0;
#X connect 128 0 125 0;
#X connect 133 0 83 0;
#X connect 134 0 83 0;
#X connect 135 0 83 0;
#X connect 136 0 83 0;
