#N canvas 82 40 1239 1325 12;
#X obj 78 344 oscformat /ch/01/mix/fader;
#X obj 77 481 netsend -u -b;
#X obj 136 395 loadbang;
#X msg 143 447 disconnect;
#X obj 78 89 vsl 20 170 0 1 0 0 empty ch1 empty 0 -9 0 12 #fcfcfc #000000 #000000 0 1;
#X obj 77 506 print;
#X msg 136 418 connect 192.168.178.221 10024;
#X obj 101 89 vsl 20 170 0 1 0 0 empty ch2 empty 0 -9 0 12 #fcfcfc #000000 #000000 0 1;
#X obj 101 323 oscformat /ch/02/mix/fader;
#X obj 241 216 snapshot~;
#X obj 241 118 +~ 1;
#X obj 241 143 /~ 2;
#X obj 241 35 tgl 40 0 empty empty empty 0 -10 0 12 #fcfcfc #000000 #000000 0 1;
#X floatatom 241 243 5 0 0 0 - - ch1 0;
#X obj 279 118 metro 0.1;
#X msg 236 554 \; pd dsp \$1;
#X obj 236 487 tgl 60 0 empty empty empty 0 -10 0 12 #ffffff #00ff04 #000000 0 1;
#X obj 241 168 *~ 0.75;
#X obj 294 30 loadbang;
#X msg 294 57 0;
#X obj 386 217 snapshot~;
#X obj 386 119 +~ 1;
#X obj 386 144 /~ 2;
#X obj 386 36 tgl 40 0 empty empty empty 0 -10 0 12 #fcfcfc #000000 #000000 0 1;
#X floatatom 386 244 5 0 0 0 - - ch2 0;
#X obj 424 119 metro 0.1;
#X obj 386 169 *~ 0.75;
#X msg 439 57 3.14159;
#X obj 439 31 loadbang;
#X obj 241 89 osc~ 0.01;
#X obj 386 90 osc~ 0.01;
#X obj 242 7 hsl 170 20 1 0.1 0 0 empty empty empty -2 -10 0 12 #fcfcfc #000000 #000000 0 1;
#X connect 0 0 1 0;
#X connect 1 0 5 0;
#X connect 2 0 6 0;
#X connect 3 0 1 0;
#X connect 4 0 0 0;
#X connect 6 0 1 0;
#X connect 7 0 8 0;
#X connect 8 0 1 0;
#X connect 9 0 13 0;
#X connect 10 0 11 0;
#X connect 11 0 17 0;
#X connect 12 0 14 0;
#X connect 12 0 29 0;
#X connect 14 0 9 0;
#X connect 16 0 15 0;
#X connect 17 0 9 0;
#X connect 18 0 19 0;
#X connect 19 0 29 1;
#X connect 20 0 24 0;
#X connect 21 0 22 0;
#X connect 22 0 26 0;
#X connect 23 0 25 0;
#X connect 23 0 30 0;
#X connect 25 0 20 0;
#X connect 26 0 20 0;
#X connect 27 0 30 1;
#X connect 28 0 27 0;
#X connect 29 0 10 0;
#X connect 30 0 21 0;
#X connect 31 0 29 0;
#X connect 31 0 30 0;
